<svg xmlns="http://www.w3.org/2000/svg" xmlns:xlink="http://www.w3.org/1999/xlink" width="100" zoomAndPan="magnify" viewBox="0 0 75 74.999997" height="100" preserveAspectRatio="xMidYMid meet" version="1.0"><defs><g/><clipPath id="89b209a2dc"><path d="M 6.414062 6.414062 L 68.664062 6.414062 L 68.664062 68.664062 L 6.414062 68.664062 Z M 6.414062 6.414062 " clip-rule="nonzero"/></clipPath><clipPath id="752b295ee4"><path d="M 37.539062 6.414062 C 38.558594 6.414062 39.574219 6.460938 40.589844 6.5625 C 41.601562 6.664062 42.609375 6.8125 43.609375 7.011719 C 44.609375 7.210938 45.597656 7.457031 46.574219 7.753906 C 47.546875 8.046875 48.507812 8.390625 49.449219 8.78125 C 50.390625 9.171875 51.3125 9.605469 52.210938 10.085938 C 53.109375 10.566406 53.980469 11.089844 54.828125 11.65625 C 55.675781 12.222656 56.496094 12.832031 57.28125 13.476562 C 58.070312 14.125 58.824219 14.808594 59.546875 15.527344 C 60.265625 16.25 60.949219 17.003906 61.597656 17.792969 C 62.242188 18.578125 62.851562 19.398438 63.417969 20.246094 C 63.984375 21.09375 64.507812 21.964844 64.988281 22.867188 C 65.46875 23.765625 65.902344 24.683594 66.292969 25.625 C 66.683594 26.566406 67.027344 27.527344 67.320312 28.503906 C 67.617188 29.476562 67.867188 30.464844 68.0625 31.464844 C 68.261719 32.464844 68.414062 33.472656 68.511719 34.488281 C 68.613281 35.5 68.664062 36.519531 68.664062 37.539062 C 68.664062 38.558594 68.613281 39.574219 68.511719 40.589844 C 68.414062 41.601562 68.261719 42.609375 68.0625 43.609375 C 67.867188 44.609375 67.617188 45.597656 67.320312 46.574219 C 67.027344 47.546875 66.683594 48.507812 66.292969 49.449219 C 65.902344 50.390625 65.46875 51.3125 64.988281 52.210938 C 64.507812 53.109375 63.984375 53.980469 63.417969 54.828125 C 62.851562 55.675781 62.242188 56.496094 61.597656 57.28125 C 60.949219 58.070312 60.265625 58.824219 59.546875 59.546875 C 58.824219 60.265625 58.070312 60.949219 57.28125 61.597656 C 56.496094 62.242188 55.675781 62.851562 54.828125 63.417969 C 53.980469 63.984375 53.109375 64.507812 52.210938 64.988281 C 51.3125 65.46875 50.390625 65.902344 49.449219 66.292969 C 48.507812 66.683594 47.546875 67.027344 46.574219 67.320312 C 45.597656 67.617188 44.609375 67.867188 43.609375 68.0625 C 42.609375 68.261719 41.601562 68.414062 40.589844 68.511719 C 39.574219 68.613281 38.558594 68.664062 37.539062 68.664062 C 36.519531 68.664062 35.5 68.613281 34.488281 68.511719 C 33.472656 68.414062 32.464844 68.261719 31.464844 68.0625 C 30.464844 67.867188 29.476562 67.617188 28.503906 67.320312 C 27.527344 67.027344 26.566406 66.683594 25.625 66.292969 C 24.683594 65.902344 23.765625 65.46875 22.867188 64.988281 C 21.964844 64.507812 21.09375 63.984375 20.246094 63.417969 C 19.398438 62.851562 18.578125 62.242188 17.792969 61.597656 C 17.003906 60.949219 16.25 60.265625 15.527344 59.546875 C 14.808594 58.824219 14.125 58.070312 13.476562 57.28125 C 12.832031 56.496094 12.222656 55.675781 11.65625 54.828125 C 11.089844 53.980469 10.566406 53.109375 10.085938 52.210938 C 9.605469 51.3125 9.171875 50.390625 8.78125 49.449219 C 8.390625 48.507812 8.046875 47.546875 7.753906 46.574219 C 7.457031 45.597656 7.210938 44.609375 7.011719 43.609375 C 6.8125 42.609375 6.664062 41.601562 6.5625 40.589844 C 6.460938 39.574219 6.414062 38.558594 6.414062 37.539062 C 6.414062 36.519531 6.460938 35.5 6.5625 34.488281 C 6.664062 33.472656 6.8125 32.464844 7.011719 31.464844 C 7.210938 30.464844 7.457031 29.476562 7.753906 28.503906 C 8.046875 27.527344 8.390625 26.566406 8.78125 25.625 C 9.171875 24.683594 9.605469 23.765625 10.085938 22.867188 C 10.566406 21.964844 11.089844 21.09375 11.65625 20.246094 C 12.222656 19.398438 12.832031 18.578125 13.476562 17.792969 C 14.125 17.003906 14.808594 16.25 15.527344 15.527344 C 16.25 14.808594 17.003906 14.125 17.792969 13.476562 C 18.578125 12.832031 19.398438 12.222656 20.246094 11.65625 C 21.09375 11.089844 21.964844 10.566406 22.867188 10.085938 C 23.765625 9.605469 24.683594 9.171875 25.625 8.78125 C 26.566406 8.390625 27.527344 8.046875 28.503906 7.753906 C 29.476562 7.457031 30.464844 7.210938 31.464844 7.011719 C 32.464844 6.8125 33.472656 6.664062 34.488281 6.5625 C 35.5 6.460938 36.519531 6.414062 37.539062 6.414062 Z M 37.539062 6.414062 " clip-rule="nonzero"/></clipPath><linearGradient x1="5.374785" gradientTransform="matrix(1.830882, 0, 0, 1.830882, 6.412501, 6.412498)" y1="-1.927213" x2="20.050525" gradientUnits="userSpaceOnUse" y2="39.001802" id="f134e6e71b"><stop stop-opacity="1" stop-color="rgb(56.098938%, 0%, 100%)" offset="0"/><stop stop-opacity="1" stop-color="rgb(56.098938%, 0%, 100%)" offset="0.125"/><stop stop-opacity="1" stop-color="rgb(56.098938%, 0%, 100%)" offset="0.140625"/><stop stop-opacity="1" stop-color="rgb(56.359863%, 0%, 100%)" offset="0.144531"/><stop stop-opacity="1" stop-color="rgb(56.620789%, 0%, 100%)" offset="0.148438"/><stop stop-opacity="1" stop-color="rgb(57.028198%, 0%, 100%)" offset="0.152344"/><stop stop-opacity="1" stop-color="rgb(57.437134%, 0%, 100%)" offset="0.15625"/><stop stop-opacity="1" stop-color="rgb(57.844543%, 0%, 100%)" offset="0.160156"/><stop stop-opacity="1" stop-color="rgb(58.253479%, 0%, 100%)" offset="0.164062"/><stop stop-opacity="1" stop-color="rgb(58.660889%, 0%, 100%)" offset="0.167969"/><stop stop-opacity="1" stop-color="rgb(59.068298%, 0%, 100%)" offset="0.171875"/><stop stop-opacity="1" stop-color="rgb(59.475708%, 0%, 100%)" offset="0.175781"/><stop stop-opacity="1" stop-color="rgb(59.884644%, 0%, 100%)" offset="0.179688"/><stop stop-opacity="1" stop-color="rgb(60.292053%, 0%, 100%)" offset="0.183594"/><stop stop-opacity="1" stop-color="rgb(60.700989%, 0%, 100%)" offset="0.1875"/><stop stop-opacity="1" stop-color="rgb(61.108398%, 0%, 100%)" offset="0.191406"/><stop stop-opacity="1" stop-color="rgb(61.517334%, 0%, 100%)" offset="0.195312"/><stop stop-opacity="1" stop-color="rgb(61.924744%, 0%, 100%)" offset="0.199219"/><stop stop-opacity="1" stop-color="rgb(62.333679%, 0%, 100%)" offset="0.203125"/><stop stop-opacity="1" stop-color="rgb(62.741089%, 0%, 100%)" offset="0.207031"/><stop stop-opacity="1" stop-color="rgb(63.150024%, 0%, 100%)" offset="0.210937"/><stop stop-opacity="1" stop-color="rgb(63.557434%, 0%, 100%)" offset="0.214844"/><stop stop-opacity="1" stop-color="rgb(63.96637%, 0%, 100%)" offset="0.21875"/><stop stop-opacity="1" stop-color="rgb(64.373779%, 0%, 100%)" offset="0.222656"/><stop stop-opacity="1" stop-color="rgb(64.782715%, 0%, 100%)" offset="0.226562"/><stop stop-opacity="1" stop-color="rgb(65.190125%, 0%, 100%)" offset="0.230469"/><stop stop-opacity="1" stop-color="rgb(65.59906%, 0%, 100%)" offset="0.234375"/><stop stop-opacity="1" stop-color="rgb(66.00647%, 0%, 100%)" offset="0.238281"/><stop stop-opacity="1" stop-color="rgb(66.415405%, 0%, 100%)" offset="0.242188"/><stop stop-opacity="1" stop-color="rgb(66.822815%, 0%, 100%)" offset="0.246094"/><stop stop-opacity="1" stop-color="rgb(67.23175%, 0%, 100%)" offset="0.25"/><stop stop-opacity="1" stop-color="rgb(67.63916%, 0%, 100%)" offset="0.253906"/><stop stop-opacity="1" stop-color="rgb(68.04657%, 0%, 100%)" offset="0.257812"/><stop stop-opacity="1" stop-color="rgb(68.453979%, 0%, 100%)" offset="0.261719"/><stop stop-opacity="1" stop-color="rgb(68.862915%, 0%, 100%)" offset="0.265625"/><stop stop-opacity="1" stop-color="rgb(69.270325%, 0%, 100%)" offset="0.269531"/><stop stop-opacity="1" stop-color="rgb(69.67926%, 0%, 100%)" offset="0.273438"/><stop stop-opacity="1" stop-color="rgb(70.08667%, 0%, 100%)" offset="0.277344"/><stop stop-opacity="1" stop-color="rgb(70.495605%, 0%, 100%)" offset="0.28125"/><stop stop-opacity="1" stop-color="rgb(70.903015%, 0%, 100%)" offset="0.285156"/><stop stop-opacity="1" stop-color="rgb(71.311951%, 0%, 100%)" offset="0.289062"/><stop stop-opacity="1" stop-color="rgb(71.71936%, 0%, 100%)" offset="0.292969"/><stop stop-opacity="1" stop-color="rgb(72.128296%, 0%, 100%)" offset="0.296875"/><stop stop-opacity="1" stop-color="rgb(72.535706%, 0%, 100%)" offset="0.300781"/><stop stop-opacity="1" stop-color="rgb(72.944641%, 0%, 100%)" offset="0.304687"/><stop stop-opacity="1" stop-color="rgb(73.352051%, 0%, 100%)" offset="0.308594"/><stop stop-opacity="1" stop-color="rgb(73.760986%, 0%, 100%)" offset="0.3125"/><stop stop-opacity="1" stop-color="rgb(74.168396%, 0%, 100%)" offset="0.316406"/><stop stop-opacity="1" stop-color="rgb(74.577332%, 0%, 100%)" offset="0.320312"/><stop stop-opacity="1" stop-color="rgb(74.984741%, 0%, 100%)" offset="0.324219"/><stop stop-opacity="1" stop-color="rgb(75.393677%, 0%, 100%)" offset="0.328125"/><stop stop-opacity="1" stop-color="rgb(75.801086%, 0%, 100%)" offset="0.332031"/><stop stop-opacity="1" stop-color="rgb(76.210022%, 0%, 100%)" offset="0.335937"/><stop stop-opacity="1" stop-color="rgb(76.617432%, 0%, 100%)" offset="0.339844"/><stop stop-opacity="1" stop-color="rgb(77.024841%, 0%, 100%)" offset="0.34375"/><stop stop-opacity="1" stop-color="rgb(77.432251%, 0%, 100%)" offset="0.347656"/><stop stop-opacity="1" stop-color="rgb(77.841187%, 0%, 100%)" offset="0.351562"/><stop stop-opacity="1" stop-color="rgb(78.248596%, 0%, 100%)" offset="0.355469"/><stop stop-opacity="1" stop-color="rgb(78.657532%, 0%, 100%)" offset="0.359375"/><stop stop-opacity="1" stop-color="rgb(79.064941%, 0%, 100%)" offset="0.363281"/><stop stop-opacity="1" stop-color="rgb(79.473877%, 0%, 100%)" offset="0.367188"/><stop stop-opacity="1" stop-color="rgb(79.881287%, 0%, 100%)" offset="0.371094"/><stop stop-opacity="1" stop-color="rgb(80.290222%, 0%, 100%)" offset="0.375"/><stop stop-opacity="1" stop-color="rgb(80.697632%, 0%, 100%)" offset="0.378906"/><stop stop-opacity="1" stop-color="rgb(81.106567%, 0%, 100%)" offset="0.382812"/><stop stop-opacity="1" stop-color="rgb(81.513977%, 0%, 100%)" offset="0.386719"/><stop stop-opacity="1" stop-color="rgb(81.922913%, 0%, 100%)" offset="0.390625"/><stop stop-opacity="1" stop-color="rgb(82.330322%, 0%, 100%)" offset="0.394531"/><stop stop-opacity="1" stop-color="rgb(82.739258%, 0%, 100%)" offset="0.398438"/><stop stop-opacity="1" stop-color="rgb(83.146667%, 0%, 100%)" offset="0.402344"/><stop stop-opacity="1" stop-color="rgb(83.555603%, 0%, 100%)" offset="0.40625"/><stop stop-opacity="1" stop-color="rgb(83.963013%, 0%, 100%)" offset="0.410156"/><stop stop-opacity="1" stop-color="rgb(84.371948%, 0%, 100%)" offset="0.414063"/><stop stop-opacity="1" stop-color="rgb(84.779358%, 0%, 100%)" offset="0.417969"/><stop stop-opacity="1" stop-color="rgb(85.188293%, 0%, 100%)" offset="0.421875"/><stop stop-opacity="1" stop-color="rgb(85.559082%, 0.0869751%, 99.887085%)" offset="0.425781"/><stop stop-opacity="1" stop-color="rgb(85.931396%, 0.17395%, 99.77417%)" offset="0.429688"/><stop stop-opacity="1" stop-color="rgb(86.054993%, 0.857544%, 98.89679%)" offset="0.433594"/><stop stop-opacity="1" stop-color="rgb(86.178589%, 1.542664%, 98.020935%)" offset="0.4375"/><stop stop-opacity="1" stop-color="rgb(86.302185%, 2.226257%, 97.143555%)" offset="0.441406"/><stop stop-opacity="1" stop-color="rgb(86.425781%, 2.911377%, 96.266174%)" offset="0.445312"/><stop stop-opacity="1" stop-color="rgb(86.549377%, 3.594971%, 95.388794%)" offset="0.449219"/><stop stop-opacity="1" stop-color="rgb(86.672974%, 4.278564%, 94.511414%)" offset="0.453125"/><stop stop-opacity="1" stop-color="rgb(86.79657%, 4.962158%, 93.634033%)" offset="0.457031"/><stop stop-opacity="1" stop-color="rgb(86.920166%, 5.647278%, 92.758179%)" offset="0.460937"/><stop stop-opacity="1" stop-color="rgb(87.043762%, 6.330872%, 91.880798%)" offset="0.464844"/><stop stop-opacity="1" stop-color="rgb(87.167358%, 7.015991%, 91.003418%)" offset="0.46875"/><stop stop-opacity="1" stop-color="rgb(87.290955%, 7.699585%, 90.126038%)" offset="0.472656"/><stop stop-opacity="1" stop-color="rgb(87.414551%, 8.383179%, 89.250183%)" offset="0.476562"/><stop stop-opacity="1" stop-color="rgb(87.538147%, 9.066772%, 88.372803%)" offset="0.480469"/><stop stop-opacity="1" stop-color="rgb(87.661743%, 9.751892%, 87.495422%)" offset="0.484375"/><stop stop-opacity="1" stop-color="rgb(87.785339%, 10.435486%, 86.618042%)" offset="0.488281"/><stop stop-opacity="1" stop-color="rgb(87.908936%, 11.120605%, 85.740662%)" offset="0.492188"/><stop stop-opacity="1" stop-color="rgb(88.032532%, 11.804199%, 84.863281%)" offset="0.496094"/><stop stop-opacity="1" stop-color="rgb(88.157654%, 12.489319%, 83.987427%)" offset="0.5"/><stop stop-opacity="1" stop-color="rgb(88.28125%, 13.172913%, 83.110046%)" offset="0.503906"/><stop stop-opacity="1" stop-color="rgb(88.404846%, 13.856506%, 82.232666%)" offset="0.507812"/><stop stop-opacity="1" stop-color="rgb(88.528442%, 14.5401%, 81.355286%)" offset="0.511719"/><stop stop-opacity="1" stop-color="rgb(88.652039%, 15.22522%, 80.479431%)" offset="0.515625"/><stop stop-opacity="1" stop-color="rgb(88.775635%, 15.908813%, 79.602051%)" offset="0.519531"/><stop stop-opacity="1" stop-color="rgb(88.899231%, 16.593933%, 78.72467%)" offset="0.523438"/><stop stop-opacity="1" stop-color="rgb(89.022827%, 17.277527%, 77.84729%)" offset="0.527344"/><stop stop-opacity="1" stop-color="rgb(89.146423%, 17.961121%, 76.96991%)" offset="0.53125"/><stop stop-opacity="1" stop-color="rgb(89.27002%, 18.644714%, 76.092529%)" offset="0.535156"/><stop stop-opacity="1" stop-color="rgb(89.393616%, 19.329834%, 75.216675%)" offset="0.539062"/><stop stop-opacity="1" stop-color="rgb(89.517212%, 20.013428%, 74.339294%)" offset="0.542969"/><stop stop-opacity="1" stop-color="rgb(89.640808%, 20.698547%, 73.461914%)" offset="0.546875"/><stop stop-opacity="1" stop-color="rgb(89.764404%, 21.382141%, 72.584534%)" offset="0.550781"/><stop stop-opacity="1" stop-color="rgb(89.888%, 22.065735%, 71.708679%)" offset="0.554688"/><stop stop-opacity="1" stop-color="rgb(90.011597%, 22.749329%, 70.831299%)" offset="0.558594"/><stop stop-opacity="1" stop-color="rgb(90.135193%, 23.434448%, 69.953918%)" offset="0.5625"/><stop stop-opacity="1" stop-color="rgb(90.258789%, 24.118042%, 69.076538%)" offset="0.566406"/><stop stop-opacity="1" stop-color="rgb(90.382385%, 24.803162%, 68.199158%)" offset="0.570312"/><stop stop-opacity="1" stop-color="rgb(90.505981%, 25.486755%, 67.321777%)" offset="0.574219"/><stop stop-opacity="1" stop-color="rgb(90.629578%, 26.170349%, 66.445923%)" offset="0.578125"/><stop stop-opacity="1" stop-color="rgb(90.753174%, 26.853943%, 65.568542%)" offset="0.582031"/><stop stop-opacity="1" stop-color="rgb(90.878296%, 27.539062%, 64.691162%)" offset="0.585938"/><stop stop-opacity="1" stop-color="rgb(91.001892%, 28.222656%, 63.813782%)" offset="0.589844"/><stop stop-opacity="1" stop-color="rgb(91.125488%, 28.907776%, 62.937927%)" offset="0.59375"/><stop stop-opacity="1" stop-color="rgb(91.249084%, 29.59137%, 62.060547%)" offset="0.597656"/><stop stop-opacity="1" stop-color="rgb(91.372681%, 30.276489%, 61.183167%)" offset="0.601563"/><stop stop-opacity="1" stop-color="rgb(91.496277%, 30.960083%, 60.305786%)" offset="0.605469"/><stop stop-opacity="1" stop-color="rgb(91.619873%, 31.643677%, 59.428406%)" offset="0.609375"/><stop stop-opacity="1" stop-color="rgb(91.743469%, 32.327271%, 58.551025%)" offset="0.613281"/><stop stop-opacity="1" stop-color="rgb(91.867065%, 33.01239%, 57.675171%)" offset="0.617188"/><stop stop-opacity="1" stop-color="rgb(91.990662%, 33.695984%, 56.797791%)" offset="0.621094"/><stop stop-opacity="1" stop-color="rgb(92.114258%, 34.381104%, 55.92041%)" offset="0.625"/><stop stop-opacity="1" stop-color="rgb(92.237854%, 35.064697%, 55.04303%)" offset="0.628906"/><stop stop-opacity="1" stop-color="rgb(92.36145%, 35.748291%, 54.167175%)" offset="0.632812"/><stop stop-opacity="1" stop-color="rgb(92.485046%, 36.431885%, 53.289795%)" offset="0.636719"/><stop stop-opacity="1" stop-color="rgb(92.608643%, 37.117004%, 52.412415%)" offset="0.640625"/><stop stop-opacity="1" stop-color="rgb(92.732239%, 37.800598%, 51.535034%)" offset="0.644531"/><stop stop-opacity="1" stop-color="rgb(92.855835%, 38.485718%, 50.657654%)" offset="0.648437"/><stop stop-opacity="1" stop-color="rgb(92.979431%, 39.169312%, 49.780273%)" offset="0.652344"/><stop stop-opacity="1" stop-color="rgb(93.103027%, 39.852905%, 48.904419%)" offset="0.65625"/><stop stop-opacity="1" stop-color="rgb(93.226624%, 40.536499%, 48.027039%)" offset="0.660156"/><stop stop-opacity="1" stop-color="rgb(93.351746%, 41.221619%, 47.149658%)" offset="0.664062"/><stop stop-opacity="1" stop-color="rgb(93.475342%, 41.905212%, 46.272278%)" offset="0.667969"/><stop stop-opacity="1" stop-color="rgb(93.598938%, 42.590332%, 45.396423%)" offset="0.671875"/><stop stop-opacity="1" stop-color="rgb(93.722534%, 43.273926%, 44.519043%)" offset="0.675781"/><stop stop-opacity="1" stop-color="rgb(93.84613%, 43.95752%, 43.641663%)" offset="0.679688"/><stop stop-opacity="1" stop-color="rgb(93.969727%, 44.641113%, 42.764282%)" offset="0.683594"/><stop stop-opacity="1" stop-color="rgb(94.093323%, 45.326233%, 41.886902%)" offset="0.6875"/><stop stop-opacity="1" stop-color="rgb(94.216919%, 46.009827%, 41.009521%)" offset="0.691406"/><stop stop-opacity="1" stop-color="rgb(94.340515%, 46.694946%, 40.133667%)" offset="0.695312"/><stop stop-opacity="1" stop-color="rgb(94.464111%, 47.37854%, 39.256287%)" offset="0.699219"/><stop stop-opacity="1" stop-color="rgb(94.587708%, 48.062134%, 38.378906%)" offset="0.703125"/><stop stop-opacity="1" stop-color="rgb(94.711304%, 48.745728%, 37.501526%)" offset="0.707031"/><stop stop-opacity="1" stop-color="rgb(94.8349%, 49.430847%, 36.625671%)" offset="0.710938"/><stop stop-opacity="1" stop-color="rgb(94.958496%, 50.114441%, 35.748291%)" offset="0.714844"/><stop stop-opacity="1" stop-color="rgb(95.082092%, 50.799561%, 34.870911%)" offset="0.71875"/><stop stop-opacity="1" stop-color="rgb(95.205688%, 51.483154%, 33.99353%)" offset="0.722656"/><stop stop-opacity="1" stop-color="rgb(95.329285%, 52.168274%, 33.11615%)" offset="0.726562"/><stop stop-opacity="1" stop-color="rgb(95.452881%, 52.851868%, 32.23877%)" offset="0.730469"/><stop stop-opacity="1" stop-color="rgb(95.576477%, 53.535461%, 31.362915%)" offset="0.734375"/><stop stop-opacity="1" stop-color="rgb(95.700073%, 54.219055%, 30.485535%)" offset="0.738281"/><stop stop-opacity="1" stop-color="rgb(95.823669%, 54.904175%, 29.608154%)" offset="0.742188"/><stop stop-opacity="1" stop-color="rgb(95.947266%, 55.587769%, 28.730774%)" offset="0.746094"/><stop stop-opacity="1" stop-color="rgb(96.072388%, 56.272888%, 27.854919%)" offset="0.75"/><stop stop-opacity="1" stop-color="rgb(96.195984%, 56.956482%, 26.977539%)" offset="0.753906"/><stop stop-opacity="1" stop-color="rgb(96.31958%, 57.640076%, 26.100159%)" offset="0.757812"/><stop stop-opacity="1" stop-color="rgb(96.443176%, 58.323669%, 25.222778%)" offset="0.761719"/><stop stop-opacity="1" stop-color="rgb(96.566772%, 59.008789%, 24.345398%)" offset="0.765625"/><stop stop-opacity="1" stop-color="rgb(96.690369%, 59.692383%, 23.468018%)" offset="0.769531"/><stop stop-opacity="1" stop-color="rgb(96.813965%, 60.377502%, 22.592163%)" offset="0.773438"/><stop stop-opacity="1" stop-color="rgb(96.937561%, 61.061096%, 21.714783%)" offset="0.777344"/><stop stop-opacity="1" stop-color="rgb(97.061157%, 61.74469%, 20.837402%)" offset="0.78125"/><stop stop-opacity="1" stop-color="rgb(97.184753%, 62.428284%, 19.960022%)" offset="0.785156"/><stop stop-opacity="1" stop-color="rgb(97.30835%, 63.113403%, 19.084167%)" offset="0.789062"/><stop stop-opacity="1" stop-color="rgb(97.431946%, 63.796997%, 18.206787%)" offset="0.792969"/><stop stop-opacity="1" stop-color="rgb(97.555542%, 64.482117%, 17.329407%)" offset="0.796875"/><stop stop-opacity="1" stop-color="rgb(97.679138%, 65.16571%, 16.452026%)" offset="0.800781"/><stop stop-opacity="1" stop-color="rgb(97.802734%, 65.849304%, 15.574646%)" offset="0.804688"/><stop stop-opacity="1" stop-color="rgb(97.926331%, 66.532898%, 14.697266%)" offset="0.808594"/><stop stop-opacity="1" stop-color="rgb(98.049927%, 67.218018%, 13.821411%)" offset="0.8125"/><stop stop-opacity="1" stop-color="rgb(98.173523%, 67.901611%, 12.944031%)" offset="0.816406"/><stop stop-opacity="1" stop-color="rgb(98.297119%, 68.586731%, 12.06665%)" offset="0.820312"/><stop stop-opacity="1" stop-color="rgb(98.420715%, 69.270325%, 11.18927%)" offset="0.824219"/><stop stop-opacity="1" stop-color="rgb(98.544312%, 69.955444%, 10.313416%)" offset="0.828125"/><stop stop-opacity="1" stop-color="rgb(98.667908%, 70.639038%, 9.436035%)" offset="0.832031"/><stop stop-opacity="1" stop-color="rgb(98.79303%, 71.322632%, 8.558655%)" offset="0.835938"/><stop stop-opacity="1" stop-color="rgb(98.916626%, 72.006226%, 7.681274%)" offset="0.839844"/><stop stop-opacity="1" stop-color="rgb(99.040222%, 72.691345%, 6.803894%)" offset="0.84375"/><stop stop-opacity="1" stop-color="rgb(99.163818%, 73.374939%, 5.926514%)" offset="0.847656"/><stop stop-opacity="1" stop-color="rgb(99.287415%, 74.060059%, 5.050659%)" offset="0.851562"/><stop stop-opacity="1" stop-color="rgb(99.411011%, 74.743652%, 4.173279%)" offset="0.855469"/><stop stop-opacity="1" stop-color="rgb(99.534607%, 75.427246%, 3.295898%)" offset="0.859375"/><stop stop-opacity="1" stop-color="rgb(99.658203%, 76.11084%, 2.418518%)" offset="0.863281"/><stop stop-opacity="1" stop-color="rgb(99.781799%, 76.795959%, 1.542664%)" offset="0.867188"/><stop stop-opacity="1" stop-color="rgb(99.890137%, 77.497864%, 1.225281%)" offset="0.871094"/><stop stop-opacity="1" stop-color="rgb(100%, 78.199768%, 0.909424%)" offset="0.875"/><stop stop-opacity="1" stop-color="rgb(100%, 79.029846%, 4.685974%)" offset="0.878906"/><stop stop-opacity="1" stop-color="rgb(100%, 79.86145%, 8.46405%)" offset="0.882812"/><stop stop-opacity="1" stop-color="rgb(100%, 80.691528%, 12.240601%)" offset="0.886719"/><stop stop-opacity="1" stop-color="rgb(100%, 81.523132%, 16.018677%)" offset="0.890625"/><stop stop-opacity="1" stop-color="rgb(100%, 82.35321%, 19.795227%)" offset="0.894531"/><stop stop-opacity="1" stop-color="rgb(100%, 83.184814%, 23.571777%)" offset="0.898437"/><stop stop-opacity="1" stop-color="rgb(100%, 84.014893%, 27.348328%)" offset="0.902344"/><stop stop-opacity="1" stop-color="rgb(100%, 84.846497%, 31.126404%)" offset="0.90625"/><stop stop-opacity="1" stop-color="rgb(100%, 85.678101%, 34.902954%)" offset="0.910156"/><stop stop-opacity="1" stop-color="rgb(100%, 86.509705%, 38.68103%)" offset="0.914062"/><stop stop-opacity="1" stop-color="rgb(100%, 87.339783%, 42.457581%)" offset="0.917969"/><stop stop-opacity="1" stop-color="rgb(100%, 88.171387%, 46.234131%)" offset="0.921875"/><stop stop-opacity="1" stop-color="rgb(100%, 89.001465%, 50.010681%)" offset="0.925781"/><stop stop-opacity="1" stop-color="rgb(100%, 89.833069%, 53.788757%)" offset="0.929687"/><stop stop-opacity="1" stop-color="rgb(100%, 90.663147%, 57.565308%)" offset="0.933594"/><stop stop-opacity="1" stop-color="rgb(100%, 91.494751%, 61.343384%)" offset="0.9375"/><stop stop-opacity="1" stop-color="rgb(100%, 92.324829%, 65.119934%)" offset="0.941406"/><stop stop-opacity="1" stop-color="rgb(100%, 93.156433%, 68.89801%)" offset="0.945312"/><stop stop-opacity="1" stop-color="rgb(100%, 93.986511%, 72.674561%)" offset="0.949219"/><stop stop-opacity="1" stop-color="rgb(100%, 94.818115%, 76.451111%)" offset="0.953125"/><stop stop-opacity="1" stop-color="rgb(100%, 95.649719%, 80.227661%)" offset="0.957031"/><stop stop-opacity="1" stop-color="rgb(100%, 96.481323%, 84.005737%)" offset="0.960937"/><stop stop-opacity="1" stop-color="rgb(100%, 97.311401%, 87.782288%)" offset="0.964844"/><stop stop-opacity="1" stop-color="rgb(100%, 98.143005%, 91.560364%)" offset="0.96875"/><stop stop-opacity="1" stop-color="rgb(100%, 98.973083%, 95.336914%)" offset="0.972656"/><stop stop-opacity="1" stop-color="rgb(100%, 99.804688%, 99.113464%)" offset="0.976562"/><stop stop-opacity="1" stop-color="rgb(100%, 99.902344%, 99.555969%)" offset="0.980469"/><stop stop-opacity="1" stop-color="rgb(100%, 100%, 100%)" offset="0.984375"/><stop stop-opacity="1" stop-color="rgb(100%, 100%, 100%)" offset="1"/></linearGradient></defs><rect x="-7.5" width="90" fill="#ffffff" y="-7.5" height="89.999996" fill-opacity="1"/><rect x="-7.5" width="90" fill="#ffffff" y="-7.5" height="89.999996" fill-opacity="1"/><g fill="#000000" fill-opacity="1"><g transform="translate(20.103515, 38.624996)"><g><path d="M 2.734375 0 L 2.140625 0 L 1.9375 -0.65625 L 0.84375 -0.65625 L 0.625 0 L 0.046875 0 L 1.03125 -2.859375 L 1.75 -2.859375 Z M 1.359375 -2.265625 L 0.984375 -1.140625 L 1.78125 -1.140625 L 1.40625 -2.265625 Z M 1.359375 -2.265625 "/></g></g></g><g fill="#000000" fill-opacity="1"><g transform="translate(22.884006, 38.624996)"><g><path d="M 1.0625 0.046875 C 0.894531 0.046875 0.742188 0.00390625 0.609375 -0.078125 C 0.484375 -0.160156 0.378906 -0.285156 0.296875 -0.453125 C 0.222656 -0.617188 0.1875 -0.828125 0.1875 -1.078125 C 0.1875 -1.328125 0.222656 -1.535156 0.296875 -1.703125 C 0.378906 -1.867188 0.488281 -1.992188 0.625 -2.078125 C 0.757812 -2.160156 0.914062 -2.203125 1.09375 -2.203125 C 1.226562 -2.203125 1.34375 -2.175781 1.4375 -2.125 C 1.539062 -2.082031 1.625 -2.007812 1.6875 -1.90625 L 1.734375 -1.921875 L 1.734375 -3.015625 L 2.265625 -3.015625 L 2.265625 0 L 1.734375 0 L 1.734375 -0.28125 L 1.6875 -0.28125 C 1.625 -0.1875 1.539062 -0.109375 1.4375 -0.046875 C 1.332031 0.015625 1.207031 0.046875 1.0625 0.046875 Z M 1.234375 -0.421875 C 1.390625 -0.421875 1.507812 -0.472656 1.59375 -0.578125 C 1.6875 -0.691406 1.734375 -0.859375 1.734375 -1.078125 C 1.734375 -1.296875 1.6875 -1.457031 1.59375 -1.5625 C 1.507812 -1.675781 1.390625 -1.734375 1.234375 -1.734375 C 1.078125 -1.734375 0.957031 -1.679688 0.875 -1.578125 C 0.789062 -1.472656 0.75 -1.304688 0.75 -1.078125 C 0.75 -0.847656 0.789062 -0.679688 0.875 -0.578125 C 0.957031 -0.472656 1.078125 -0.421875 1.234375 -0.421875 Z M 1.234375 -0.421875 "/></g></g></g><g fill="#000000" fill-opacity="1"><g transform="translate(25.463516, 38.624996)"><g><path d="M 1.0625 0.046875 C 0.894531 0.046875 0.742188 0.00390625 0.609375 -0.078125 C 0.484375 -0.160156 0.378906 -0.285156 0.296875 -0.453125 C 0.222656 -0.617188 0.1875 -0.828125 0.1875 -1.078125 C 0.1875 -1.328125 0.222656 -1.535156 0.296875 -1.703125 C 0.378906 -1.867188 0.488281 -1.992188 0.625 -2.078125 C 0.757812 -2.160156 0.914062 -2.203125 1.09375 -2.203125 C 1.226562 -2.203125 1.34375 -2.175781 1.4375 -2.125 C 1.539062 -2.082031 1.625 -2.007812 1.6875 -1.90625 L 1.734375 -1.921875 L 1.734375 -3.015625 L 2.265625 -3.015625 L 2.265625 0 L 1.734375 0 L 1.734375 -0.28125 L 1.6875 -0.28125 C 1.625 -0.1875 1.539062 -0.109375 1.4375 -0.046875 C 1.332031 0.015625 1.207031 0.046875 1.0625 0.046875 Z M 1.234375 -0.421875 C 1.390625 -0.421875 1.507812 -0.472656 1.59375 -0.578125 C 1.6875 -0.691406 1.734375 -0.859375 1.734375 -1.078125 C 1.734375 -1.296875 1.6875 -1.457031 1.59375 -1.5625 C 1.507812 -1.675781 1.390625 -1.734375 1.234375 -1.734375 C 1.078125 -1.734375 0.957031 -1.679688 0.875 -1.578125 C 0.789062 -1.472656 0.75 -1.304688 0.75 -1.078125 C 0.75 -0.847656 0.789062 -0.679688 0.875 -0.578125 C 0.957031 -0.472656 1.078125 -0.421875 1.234375 -0.421875 Z M 1.234375 -0.421875 "/></g></g></g><g fill="#000000" fill-opacity="1"><g transform="translate(28.043025, 38.624996)"><g/></g></g><g fill="#000000" fill-opacity="1"><g transform="translate(28.985469, 38.624996)"><g><path d="M 0.84375 0.046875 C 0.707031 0.046875 0.585938 0.0195312 0.484375 -0.03125 C 0.378906 -0.0820312 0.300781 -0.15625 0.25 -0.25 C 0.195312 -0.351562 0.171875 -0.472656 0.171875 -0.609375 C 0.171875 -0.742188 0.195312 -0.851562 0.25 -0.9375 C 0.300781 -1.019531 0.382812 -1.085938 0.5 -1.140625 C 0.613281 -1.203125 0.765625 -1.25 0.953125 -1.28125 C 1.078125 -1.300781 1.171875 -1.320312 1.234375 -1.34375 C 1.304688 -1.363281 1.351562 -1.390625 1.375 -1.421875 C 1.40625 -1.453125 1.421875 -1.492188 1.421875 -1.546875 C 1.421875 -1.617188 1.394531 -1.671875 1.34375 -1.703125 C 1.289062 -1.742188 1.210938 -1.765625 1.109375 -1.765625 C 0.984375 -1.765625 0.863281 -1.734375 0.75 -1.671875 C 0.644531 -1.617188 0.554688 -1.550781 0.484375 -1.46875 L 0.4375 -1.46875 L 0.21875 -1.8125 C 0.320312 -1.9375 0.453125 -2.03125 0.609375 -2.09375 C 0.765625 -2.164062 0.9375 -2.203125 1.125 -2.203125 C 1.414062 -2.203125 1.625 -2.140625 1.75 -2.015625 C 1.875 -1.890625 1.9375 -1.71875 1.9375 -1.5 L 1.9375 -0.5625 C 1.9375 -0.46875 1.976562 -0.421875 2.0625 -0.421875 C 2.09375 -0.421875 2.125 -0.425781 2.15625 -0.4375 L 2.1875 -0.421875 L 2.234375 -0.046875 C 2.203125 -0.0234375 2.160156 -0.0078125 2.109375 0 C 2.054688 0.0078125 1.992188 0.015625 1.921875 0.015625 C 1.796875 0.015625 1.695312 -0.0078125 1.625 -0.0625 C 1.550781 -0.113281 1.5 -0.191406 1.46875 -0.296875 L 1.4375 -0.296875 C 1.320312 -0.0664062 1.125 0.046875 0.84375 0.046875 Z M 1.015625 -0.359375 C 1.140625 -0.359375 1.238281 -0.398438 1.3125 -0.484375 C 1.382812 -0.566406 1.421875 -0.6875 1.421875 -0.84375 L 1.421875 -1.0625 L 1.390625 -1.0625 C 1.359375 -1.039062 1.316406 -1.019531 1.265625 -1 C 1.210938 -0.976562 1.132812 -0.960938 1.03125 -0.953125 C 0.914062 -0.929688 0.832031 -0.894531 0.78125 -0.84375 C 0.726562 -0.800781 0.703125 -0.734375 0.703125 -0.640625 C 0.703125 -0.554688 0.726562 -0.488281 0.78125 -0.4375 C 0.832031 -0.382812 0.910156 -0.359375 1.015625 -0.359375 Z M 1.015625 -0.359375 "/></g></g></g><g fill="#000000" fill-opacity="1"><g transform="translate(31.254741, 38.624996)"><g/></g></g><g fill="#000000" fill-opacity="1"><g transform="translate(32.197184, 38.624996)"><g><path d="M 1.015625 0.046875 C 0.859375 0.046875 0.71875 0.03125 0.59375 0 C 0.476562 -0.0390625 0.375 -0.09375 0.28125 -0.15625 C 0.195312 -0.21875 0.132812 -0.285156 0.09375 -0.359375 L 0.40625 -0.6875 L 0.4375 -0.6875 C 0.507812 -0.59375 0.59375 -0.519531 0.6875 -0.46875 C 0.789062 -0.414062 0.898438 -0.390625 1.015625 -0.390625 C 1.117188 -0.390625 1.195312 -0.410156 1.25 -0.453125 C 1.300781 -0.492188 1.328125 -0.546875 1.328125 -0.609375 C 1.328125 -0.671875 1.304688 -0.71875 1.265625 -0.75 C 1.234375 -0.789062 1.175781 -0.820312 1.09375 -0.84375 L 0.796875 -0.90625 C 0.585938 -0.957031 0.429688 -1.035156 0.328125 -1.140625 C 0.234375 -1.242188 0.1875 -1.378906 0.1875 -1.546875 C 0.1875 -1.679688 0.21875 -1.796875 0.28125 -1.890625 C 0.351562 -1.992188 0.453125 -2.070312 0.578125 -2.125 C 0.703125 -2.175781 0.847656 -2.203125 1.015625 -2.203125 C 1.203125 -2.203125 1.359375 -2.171875 1.484375 -2.109375 C 1.617188 -2.054688 1.722656 -1.984375 1.796875 -1.890625 L 1.5 -1.578125 L 1.46875 -1.578125 C 1.40625 -1.640625 1.335938 -1.6875 1.265625 -1.71875 C 1.191406 -1.75 1.109375 -1.765625 1.015625 -1.765625 C 0.796875 -1.765625 0.6875 -1.703125 0.6875 -1.578125 C 0.6875 -1.515625 0.707031 -1.460938 0.75 -1.421875 C 0.789062 -1.390625 0.863281 -1.363281 0.96875 -1.34375 L 1.234375 -1.296875 C 1.453125 -1.242188 1.609375 -1.164062 1.703125 -1.0625 C 1.804688 -0.957031 1.859375 -0.816406 1.859375 -0.640625 C 1.859375 -0.503906 1.820312 -0.382812 1.75 -0.28125 C 1.6875 -0.175781 1.585938 -0.09375 1.453125 -0.03125 C 1.328125 0.0195312 1.179688 0.046875 1.015625 0.046875 Z M 1.015625 0.046875 "/></g></g></g><g fill="#000000" fill-opacity="1"><g transform="translate(34.181578, 38.624996)"><g><path d="M 0.984375 0.046875 C 0.742188 0.046875 0.566406 -0.0195312 0.453125 -0.15625 C 0.335938 -0.289062 0.28125 -0.484375 0.28125 -0.734375 L 0.28125 -2.15625 L 0.8125 -2.15625 L 0.8125 -0.796875 C 0.8125 -0.660156 0.835938 -0.5625 0.890625 -0.5 C 0.953125 -0.445312 1.046875 -0.421875 1.171875 -0.421875 C 1.316406 -0.421875 1.429688 -0.46875 1.515625 -0.5625 C 1.597656 -0.664062 1.640625 -0.820312 1.640625 -1.03125 L 1.640625 -2.15625 L 2.1875 -2.15625 L 2.1875 0 L 1.65625 0 L 1.65625 -0.3125 L 1.625 -0.328125 C 1.550781 -0.203125 1.460938 -0.109375 1.359375 -0.046875 C 1.265625 0.015625 1.140625 0.046875 0.984375 0.046875 Z M 0.984375 0.046875 "/></g></g></g><g fill="#000000" fill-opacity="1"><g transform="translate(36.671332, 38.624996)"><g><path d="M 1.5 0.046875 C 1.226562 0.046875 1.023438 -0.0546875 0.890625 -0.265625 L 0.859375 -0.265625 L 0.859375 0 L 0.3125 0 L 0.3125 -3.015625 L 0.859375 -3.015625 L 0.859375 -1.90625 L 0.890625 -1.890625 C 0.960938 -1.992188 1.050781 -2.070312 1.15625 -2.125 C 1.257812 -2.175781 1.378906 -2.203125 1.515625 -2.203125 C 1.691406 -2.203125 1.84375 -2.160156 1.96875 -2.078125 C 2.101562 -1.992188 2.207031 -1.867188 2.28125 -1.703125 C 2.351562 -1.535156 2.390625 -1.328125 2.390625 -1.078125 C 2.390625 -0.828125 2.347656 -0.617188 2.265625 -0.453125 C 2.191406 -0.285156 2.085938 -0.160156 1.953125 -0.078125 C 1.828125 0.00390625 1.675781 0.046875 1.5 0.046875 Z M 1.34375 -0.421875 C 1.5 -0.421875 1.617188 -0.472656 1.703125 -0.578125 C 1.785156 -0.679688 1.828125 -0.847656 1.828125 -1.078125 C 1.828125 -1.304688 1.785156 -1.472656 1.703125 -1.578125 C 1.617188 -1.679688 1.5 -1.734375 1.34375 -1.734375 C 1.1875 -1.734375 1.0625 -1.675781 0.96875 -1.5625 C 0.882812 -1.457031 0.84375 -1.296875 0.84375 -1.078125 C 0.84375 -0.859375 0.882812 -0.691406 0.96875 -0.578125 C 1.0625 -0.472656 1.1875 -0.421875 1.34375 -0.421875 Z M 1.34375 -0.421875 "/></g></g></g><g fill="#000000" fill-opacity="1"><g transform="translate(39.248896, 38.624996)"><g><path d="M 0.3125 0 L 0.3125 -3.015625 L 0.859375 -3.015625 L 0.859375 -1.875 L 0.890625 -1.859375 C 0.960938 -1.972656 1.050781 -2.054688 1.15625 -2.109375 C 1.257812 -2.171875 1.382812 -2.203125 1.53125 -2.203125 C 2.007812 -2.203125 2.25 -1.929688 2.25 -1.390625 L 2.25 0 L 1.703125 0 L 1.703125 -1.3125 C 1.703125 -1.46875 1.671875 -1.578125 1.609375 -1.640625 C 1.554688 -1.703125 1.46875 -1.734375 1.34375 -1.734375 C 1.195312 -1.734375 1.078125 -1.679688 0.984375 -1.578125 C 0.898438 -1.484375 0.859375 -1.328125 0.859375 -1.109375 L 0.859375 0 Z M 0.3125 0 "/></g></g></g><g fill="#000000" fill-opacity="1"><g transform="translate(41.769869, 38.624996)"><g><path d="M 2.125 -0.953125 L 0.75 -0.953125 C 0.757812 -0.765625 0.8125 -0.628906 0.90625 -0.546875 C 1 -0.460938 1.125 -0.421875 1.28125 -0.421875 C 1.40625 -0.421875 1.503906 -0.441406 1.578125 -0.484375 C 1.648438 -0.535156 1.710938 -0.609375 1.765625 -0.703125 L 1.8125 -0.703125 L 2.171875 -0.46875 C 2.097656 -0.3125 1.988281 -0.1875 1.84375 -0.09375 C 1.707031 0 1.519531 0.046875 1.28125 0.046875 C 1.050781 0.046875 0.851562 0.00390625 0.6875 -0.078125 C 0.53125 -0.171875 0.40625 -0.300781 0.3125 -0.46875 C 0.226562 -0.632812 0.1875 -0.835938 0.1875 -1.078125 C 0.1875 -1.316406 0.234375 -1.519531 0.328125 -1.6875 C 0.421875 -1.863281 0.546875 -1.992188 0.703125 -2.078125 C 0.859375 -2.160156 1.035156 -2.203125 1.234375 -2.203125 C 1.546875 -2.203125 1.78125 -2.117188 1.9375 -1.953125 C 2.101562 -1.796875 2.1875 -1.5625 2.1875 -1.25 C 2.1875 -1.132812 2.179688 -1.046875 2.171875 -0.984375 Z M 1.671875 -1.3125 C 1.660156 -1.46875 1.617188 -1.582031 1.546875 -1.65625 C 1.472656 -1.738281 1.367188 -1.78125 1.234375 -1.78125 C 0.960938 -1.78125 0.800781 -1.625 0.75 -1.3125 Z M 1.671875 -1.3125 "/></g></g></g><g fill="#000000" fill-opacity="1"><g transform="translate(44.109384, 38.624996)"><g><path d="M 0.84375 0.046875 C 0.707031 0.046875 0.585938 0.0195312 0.484375 -0.03125 C 0.378906 -0.0820312 0.300781 -0.15625 0.25 -0.25 C 0.195312 -0.351562 0.171875 -0.472656 0.171875 -0.609375 C 0.171875 -0.742188 0.195312 -0.851562 0.25 -0.9375 C 0.300781 -1.019531 0.382812 -1.085938 0.5 -1.140625 C 0.613281 -1.203125 0.765625 -1.25 0.953125 -1.28125 C 1.078125 -1.300781 1.171875 -1.320312 1.234375 -1.34375 C 1.304688 -1.363281 1.351562 -1.390625 1.375 -1.421875 C 1.40625 -1.453125 1.421875 -1.492188 1.421875 -1.546875 C 1.421875 -1.617188 1.394531 -1.671875 1.34375 -1.703125 C 1.289062 -1.742188 1.210938 -1.765625 1.109375 -1.765625 C 0.984375 -1.765625 0.863281 -1.734375 0.75 -1.671875 C 0.644531 -1.617188 0.554688 -1.550781 0.484375 -1.46875 L 0.4375 -1.46875 L 0.21875 -1.8125 C 0.320312 -1.9375 0.453125 -2.03125 0.609375 -2.09375 C 0.765625 -2.164062 0.9375 -2.203125 1.125 -2.203125 C 1.414062 -2.203125 1.625 -2.140625 1.75 -2.015625 C 1.875 -1.890625 1.9375 -1.71875 1.9375 -1.5 L 1.9375 -0.5625 C 1.9375 -0.46875 1.976562 -0.421875 2.0625 -0.421875 C 2.09375 -0.421875 2.125 -0.425781 2.15625 -0.4375 L 2.1875 -0.421875 L 2.234375 -0.046875 C 2.203125 -0.0234375 2.160156 -0.0078125 2.109375 0 C 2.054688 0.0078125 1.992188 0.015625 1.921875 0.015625 C 1.796875 0.015625 1.695312 -0.0078125 1.625 -0.0625 C 1.550781 -0.113281 1.5 -0.191406 1.46875 -0.296875 L 1.4375 -0.296875 C 1.320312 -0.0664062 1.125 0.046875 0.84375 0.046875 Z M 1.015625 -0.359375 C 1.140625 -0.359375 1.238281 -0.398438 1.3125 -0.484375 C 1.382812 -0.566406 1.421875 -0.6875 1.421875 -0.84375 L 1.421875 -1.0625 L 1.390625 -1.0625 C 1.359375 -1.039062 1.316406 -1.019531 1.265625 -1 C 1.210938 -0.976562 1.132812 -0.960938 1.03125 -0.953125 C 0.914062 -0.929688 0.832031 -0.894531 0.78125 -0.84375 C 0.726562 -0.800781 0.703125 -0.734375 0.703125 -0.640625 C 0.703125 -0.554688 0.726562 -0.488281 0.78125 -0.4375 C 0.832031 -0.382812 0.910156 -0.359375 1.015625 -0.359375 Z M 1.015625 -0.359375 "/></g></g></g><g fill="#000000" fill-opacity="1"><g transform="translate(46.378656, 38.624996)"><g><path d="M 1.0625 0.046875 C 0.894531 0.046875 0.742188 0.00390625 0.609375 -0.078125 C 0.484375 -0.160156 0.378906 -0.285156 0.296875 -0.453125 C 0.222656 -0.617188 0.1875 -0.828125 0.1875 -1.078125 C 0.1875 -1.328125 0.222656 -1.535156 0.296875 -1.703125 C 0.378906 -1.867188 0.488281 -1.992188 0.625 -2.078125 C 0.757812 -2.160156 0.914062 -2.203125 1.09375 -2.203125 C 1.226562 -2.203125 1.34375 -2.175781 1.4375 -2.125 C 1.539062 -2.082031 1.625 -2.007812 1.6875 -1.90625 L 1.734375 -1.921875 L 1.734375 -3.015625 L 2.265625 -3.015625 L 2.265625 0 L 1.734375 0 L 1.734375 -0.28125 L 1.6875 -0.28125 C 1.625 -0.1875 1.539062 -0.109375 1.4375 -0.046875 C 1.332031 0.015625 1.207031 0.046875 1.0625 0.046875 Z M 1.234375 -0.421875 C 1.390625 -0.421875 1.507812 -0.472656 1.59375 -0.578125 C 1.6875 -0.691406 1.734375 -0.859375 1.734375 -1.078125 C 1.734375 -1.296875 1.6875 -1.457031 1.59375 -1.5625 C 1.507812 -1.675781 1.390625 -1.734375 1.234375 -1.734375 C 1.078125 -1.734375 0.957031 -1.679688 0.875 -1.578125 C 0.789062 -1.472656 0.75 -1.304688 0.75 -1.078125 C 0.75 -0.847656 0.789062 -0.679688 0.875 -0.578125 C 0.957031 -0.472656 1.078125 -0.421875 1.234375 -0.421875 Z M 1.234375 -0.421875 "/></g></g></g><g fill="#000000" fill-opacity="1"><g transform="translate(48.958165, 38.624996)"><g><path d="M 0.578125 -2.40625 C 0.484375 -2.40625 0.40625 -2.4375 0.34375 -2.5 C 0.28125 -2.5625 0.25 -2.640625 0.25 -2.734375 C 0.25 -2.828125 0.28125 -2.898438 0.34375 -2.953125 C 0.40625 -3.015625 0.484375 -3.046875 0.578125 -3.046875 C 0.640625 -3.046875 0.695312 -3.03125 0.75 -3 C 0.800781 -2.976562 0.84375 -2.941406 0.875 -2.890625 C 0.90625 -2.847656 0.921875 -2.796875 0.921875 -2.734375 C 0.921875 -2.671875 0.90625 -2.613281 0.875 -2.5625 C 0.84375 -2.519531 0.800781 -2.484375 0.75 -2.453125 C 0.695312 -2.421875 0.640625 -2.40625 0.578125 -2.40625 Z M 0.3125 0 L 0.3125 -2.15625 L 0.859375 -2.15625 L 0.859375 0 Z M 0.3125 0 "/></g></g></g><g fill="#000000" fill-opacity="1"><g transform="translate(50.117189, 38.624996)"><g><path d="M 0.3125 0 L 0.3125 -2.15625 L 0.828125 -2.15625 L 0.828125 -1.84375 L 0.875 -1.828125 C 1.007812 -2.078125 1.226562 -2.203125 1.53125 -2.203125 C 1.769531 -2.203125 1.945312 -2.132812 2.0625 -2 C 2.1875 -1.863281 2.25 -1.664062 2.25 -1.40625 L 2.25 0 L 1.703125 0 L 1.703125 -1.328125 C 1.703125 -1.472656 1.671875 -1.578125 1.609375 -1.640625 C 1.554688 -1.703125 1.46875 -1.734375 1.34375 -1.734375 C 1.1875 -1.734375 1.066406 -1.679688 0.984375 -1.578125 C 0.898438 -1.484375 0.859375 -1.328125 0.859375 -1.109375 L 0.859375 0 Z M 0.3125 0 "/></g></g></g><g fill="#000000" fill-opacity="1"><g transform="translate(52.638162, 38.624996)"><g><path d="M 1.125 0.921875 C 0.757812 0.921875 0.492188 0.867188 0.328125 0.765625 C 0.160156 0.660156 0.078125 0.515625 0.078125 0.328125 C 0.078125 0.210938 0.113281 0.117188 0.1875 0.046875 C 0.257812 -0.0234375 0.363281 -0.078125 0.5 -0.109375 L 0.5 -0.140625 C 0.425781 -0.179688 0.375 -0.226562 0.34375 -0.28125 C 0.3125 -0.34375 0.296875 -0.410156 0.296875 -0.484375 C 0.296875 -0.648438 0.40625 -0.765625 0.625 -0.828125 L 0.625 -0.875 C 0.507812 -0.9375 0.421875 -1.015625 0.359375 -1.109375 C 0.304688 -1.210938 0.28125 -1.332031 0.28125 -1.46875 C 0.28125 -1.613281 0.3125 -1.738281 0.375 -1.84375 C 0.445312 -1.957031 0.546875 -2.046875 0.671875 -2.109375 C 0.796875 -2.171875 0.945312 -2.203125 1.125 -2.203125 C 1.300781 -2.203125 1.441406 -2.171875 1.546875 -2.109375 C 1.617188 -2.203125 1.660156 -2.3125 1.671875 -2.4375 L 1.703125 -2.46875 L 2.09375 -2.359375 C 2.082031 -2.265625 2.050781 -2.179688 2 -2.109375 C 1.957031 -2.035156 1.882812 -1.972656 1.78125 -1.921875 L 1.78125 -1.875 C 1.90625 -1.769531 1.96875 -1.625 1.96875 -1.4375 C 1.96875 -1.300781 1.929688 -1.179688 1.859375 -1.078125 C 1.796875 -0.972656 1.703125 -0.890625 1.578125 -0.828125 C 1.453125 -0.765625 1.300781 -0.734375 1.125 -0.734375 L 1.046875 -0.734375 C 0.992188 -0.734375 0.957031 -0.734375 0.9375 -0.734375 C 0.882812 -0.734375 0.84375 -0.71875 0.8125 -0.6875 C 0.789062 -0.664062 0.78125 -0.632812 0.78125 -0.59375 C 0.78125 -0.550781 0.796875 -0.515625 0.828125 -0.484375 C 0.867188 -0.460938 0.921875 -0.453125 0.984375 -0.453125 L 1.46875 -0.421875 C 1.945312 -0.410156 2.1875 -0.207031 2.1875 0.1875 C 2.1875 0.320312 2.148438 0.441406 2.078125 0.546875 C 2.003906 0.660156 1.890625 0.75 1.734375 0.8125 C 1.578125 0.882812 1.375 0.921875 1.125 0.921875 Z M 1.125 -1.109375 C 1.226562 -1.109375 1.304688 -1.140625 1.359375 -1.203125 C 1.421875 -1.265625 1.453125 -1.351562 1.453125 -1.46875 C 1.453125 -1.582031 1.421875 -1.664062 1.359375 -1.71875 C 1.304688 -1.78125 1.226562 -1.8125 1.125 -1.8125 C 1.019531 -1.8125 0.9375 -1.78125 0.875 -1.71875 C 0.820312 -1.664062 0.796875 -1.582031 0.796875 -1.46875 C 0.796875 -1.351562 0.820312 -1.265625 0.875 -1.203125 C 0.9375 -1.140625 1.019531 -1.109375 1.125 -1.109375 Z M 1.125 0.515625 C 1.300781 0.515625 1.429688 0.488281 1.515625 0.4375 C 1.597656 0.382812 1.640625 0.316406 1.640625 0.234375 C 1.640625 0.171875 1.617188 0.125 1.578125 0.09375 C 1.535156 0.0625 1.46875 0.046875 1.375 0.046875 L 0.953125 0.015625 C 0.941406 0.015625 0.925781 0.015625 0.90625 0.015625 C 0.894531 0.015625 0.882812 0.015625 0.875 0.015625 C 0.78125 0.015625 0.707031 0.0351562 0.65625 0.078125 C 0.613281 0.117188 0.59375 0.171875 0.59375 0.234375 C 0.59375 0.328125 0.632812 0.394531 0.71875 0.4375 C 0.8125 0.488281 0.945312 0.515625 1.125 0.515625 Z M 1.125 0.515625 "/></g></g></g><g clip-path="url(#89b209a2dc)"><g clip-path="url(#752b295ee4)"><path fill="url(#f134e6e71b)" d="M 6.414062 6.414062 L 6.414062 68.664062 L 68.664062 68.664062 L 68.664062 6.414062 Z M 6.414062 6.414062 " fill-rule="nonzero"/></g></g><path fill="#ffffff" d="M 37.539062 21.058594 C 28.4375 21.058594 21.058594 28.4375 21.058594 37.539062 C 21.058594 41.90625 22.757812 45.878906 25.535156 48.828125 C 26.753906 46.472656 29.210938 44.859375 32.042969 44.859375 L 43.03125 44.859375 C 45.863281 44.859375 48.324219 46.472656 49.539062 48.828125 C 52.316406 45.878906 54.015625 41.90625 54.015625 37.539062 C 54.015625 28.4375 46.636719 21.058594 37.539062 21.058594 Z M 46.585938 51.308594 C 46.195312 49.710938 44.75 48.523438 43.03125 48.523438 L 32.042969 48.523438 C 30.324219 48.523438 28.878906 49.710938 28.488281 51.308594 C 31.085938 53.019531 34.195312 54.015625 37.539062 54.015625 C 40.878906 54.015625 43.988281 53.019531 46.585938 51.308594 Z M 17.398438 37.539062 C 17.398438 26.414062 26.414062 17.398438 37.539062 17.398438 C 48.660156 17.398438 57.675781 26.414062 57.675781 37.539062 C 57.675781 48.660156 48.660156 57.675781 37.539062 57.675781 C 26.414062 57.675781 17.398438 48.660156 17.398438 37.539062 Z M 37.539062 28.382812 C 34.503906 28.382812 32.042969 30.84375 32.042969 33.875 C 32.042969 36.910156 34.503906 39.367188 37.539062 39.367188 C 40.570312 39.367188 43.03125 36.910156 43.03125 33.875 C 43.03125 30.84375 40.570312 28.382812 37.539062 28.382812 Z M 28.382812 33.875 C 28.382812 28.820312 32.480469 24.722656 37.539062 24.722656 C 42.59375 24.722656 46.691406 28.820312 46.691406 33.875 C 46.691406 38.929688 42.59375 43.03125 37.539062 43.03125 C 32.480469 43.03125 28.382812 38.929688 28.382812 33.875 Z M 28.382812 33.875 " fill-opacity="1" fill-rule="evenodd"/></svg>