<svg xmlns="http://www.w3.org/2000/svg" xmlns:xlink="http://www.w3.org/1999/xlink" width="100" zoomAndPan="magnify" viewBox="0 0 75 74.999997" height="100" preserveAspectRatio="xMidYMid meet" version="1.0"><defs><g/><clipPath id="a151c000ce"><path d="M 11.46875 34.464844 L 63.273438 34.464844 L 63.273438 40.476562 L 11.46875 40.476562 Z M 11.46875 34.464844 " clip-rule="nonzero"/></clipPath></defs><rect x="-7.5" width="90" fill="#ffffff" y="-7.5" height="89.999996" fill-opacity="1"/><rect x="-7.5" width="90" fill="#fafafa" y="-7.5" height="89.999996" fill-opacity="1"/><g fill="#000000" fill-opacity="1"><g transform="translate(34.734597, 50.259064)"><g><path d="M 4.796875 -29.515625 C 6.535156 -30.234375 8.207031 -30.59375 9.8125 -30.59375 C 11.15625 -30.59375 12.535156 -30.097656 13.953125 -29.109375 C 14.734375 -28.566406 15.609375 -27.519531 16.578125 -25.96875 C 17.210938 -24.894531 18.023438 -22.953125 19.015625 -20.140625 L 23.921875 -6.234375 C 25.046875 -3.117188 26.191406 -0.644531 27.359375 1.1875 C 28.523438 3.019531 29.59375 4.398438 30.5625 5.328125 C 31.53125 6.253906 32.535156 6.90625 33.578125 7.28125 C 34.617188 7.65625 35.476562 7.84375 36.15625 7.84375 C 36.84375 7.84375 37.457031 7.785156 38 7.671875 L 38.03125 8.078125 C 36.75 8.503906 35.488281 8.71875 34.25 8.71875 C 33.019531 8.71875 31.789062 8.398438 30.5625 7.765625 C 29.332031 7.140625 28.179688 6.265625 27.109375 5.140625 C 24.796875 2.804688 22.835938 -0.742188 21.234375 -5.515625 L 19.671875 -10.09375 L 8.65625 -10.09375 L 5.875 -2.9375 C 5.738281 -2.613281 5.671875 -2.289062 5.671875 -1.96875 C 5.671875 -1.644531 5.8125 -1.300781 6.09375 -0.9375 C 6.375 -0.582031 6.8125 -0.40625 7.40625 -0.40625 L 7.71875 -0.40625 L 7.71875 0 L -0.359375 0 L -0.359375 -0.40625 L 0 -0.40625 C 0.644531 -0.40625 1.273438 -0.597656 1.890625 -0.984375 C 2.515625 -1.367188 3.023438 -1.953125 3.421875 -2.734375 L 13.390625 -26.609375 C 11.941406 -28.671875 10.144531 -29.703125 8 -29.703125 C 7.039062 -29.703125 6.007812 -29.503906 4.90625 -29.109375 Z M 9.09375 -11.296875 L 19.265625 -11.296875 L 16.09375 -20.671875 C 15.46875 -22.460938 14.90625 -23.867188 14.40625 -24.890625 Z M 9.09375 -11.296875 "/></g></g></g><g fill="#000000" fill-opacity="1"><g transform="translate(10.129938, 49.425448)"><g><path d="M -2.328125 -20.140625 C -3.160156 -21.128906 -3.578125 -22.113281 -3.578125 -23.09375 C -3.578125 -24.070312 -3.347656 -24.914062 -2.890625 -25.625 C -2.429688 -26.332031 -1.691406 -26.9375 -0.671875 -27.4375 C 0.335938 -27.9375 1.488281 -28.1875 2.78125 -28.1875 L 19.265625 -28.1875 C 20.097656 -28.1875 21.015625 -28.265625 22.015625 -28.421875 C 23.023438 -28.585938 23.726562 -28.75 24.125 -28.90625 L 24.125 -23.84375 L 23.71875 -23.875 L 23.71875 -24.5625 C 23.71875 -25.207031 23.488281 -25.765625 23.03125 -26.234375 C 22.582031 -26.703125 22.050781 -26.945312 21.4375 -26.96875 L 13.796875 -26.96875 L 13.796875 -2.890625 C 13.828125 -1.929688 14.253906 -1.207031 15.078125 -0.71875 C 15.484375 -0.507812 15.914062 -0.40625 16.375 -0.40625 L 16.890625 -0.40625 L 16.890625 0 L 8.09375 0 L 8.09375 -0.40625 L 8.609375 -0.40625 C 9.304688 -0.40625 9.898438 -0.644531 10.390625 -1.125 C 10.890625 -1.601562 11.15625 -2.179688 11.1875 -2.859375 L 11.1875 -26.96875 L 2.78125 -26.96875 C 0.632812 -26.96875 -0.921875 -26.285156 -1.890625 -24.921875 C -2.390625 -24.222656 -2.640625 -23.492188 -2.640625 -22.734375 C -2.640625 -21.972656 -2.425781 -21.175781 -2 -20.34375 Z M -2.328125 -20.140625 "/></g></g></g><g clip-path="url(#a151c000ce)"><path fill="#fafafa" d="M 11.46875 34.464844 L 63.285156 34.464844 L 63.285156 40.476562 L 11.46875 40.476562 Z M 11.46875 34.464844 " fill-opacity="1" fill-rule="nonzero"/></g><g fill="#5e17eb" fill-opacity="1"><g transform="translate(21.318836, 38.435684)"><g><path d="M 0.609375 -1.53125 L 0.015625 -1.53125 L 0.015625 -1.875 L 1.65625 -1.875 L 1.65625 -1.53125 L 1.046875 -1.53125 L 1.046875 0 L 0.609375 0 Z M 0.609375 -1.53125 "/></g></g></g><g fill="#5e17eb" fill-opacity="1"><g transform="translate(23.911467, 38.435684)"><g><path d="M 1.421875 0 L 1.0625 -0.53125 L 0.65625 -0.53125 L 0.65625 0 L 0.21875 0 L 0.21875 -1.875 L 1.03125 -1.875 C 1.195312 -1.875 1.34375 -1.847656 1.46875 -1.796875 C 1.59375 -1.742188 1.6875 -1.664062 1.75 -1.5625 C 1.820312 -1.457031 1.859375 -1.335938 1.859375 -1.203125 C 1.859375 -1.054688 1.820312 -0.929688 1.75 -0.828125 C 1.6875 -0.734375 1.59375 -0.660156 1.46875 -0.609375 L 1.890625 0 Z M 1.40625 -1.203125 C 1.40625 -1.304688 1.367188 -1.382812 1.296875 -1.4375 C 1.234375 -1.5 1.140625 -1.53125 1.015625 -1.53125 L 0.65625 -1.53125 L 0.65625 -0.875 L 1.015625 -0.875 C 1.140625 -0.875 1.234375 -0.898438 1.296875 -0.953125 C 1.367188 -1.015625 1.40625 -1.097656 1.40625 -1.203125 Z M 1.40625 -1.203125 "/></g></g></g><g fill="#5e17eb" fill-opacity="1"><g transform="translate(26.818758, 38.435684)"><g><path d="M 1.46875 -0.40625 L 0.59375 -0.40625 L 0.421875 0 L -0.03125 0 L 0.8125 -1.875 L 1.25 -1.875 L 2.078125 0 L 1.625 0 Z M 1.328125 -0.734375 L 1.03125 -1.453125 L 0.734375 -0.734375 Z M 1.328125 -0.734375 "/></g></g></g><g fill="#5e17eb" fill-opacity="1"><g transform="translate(29.80942, 38.435684)"><g><path d="M 2.03125 -1.875 L 1.21875 0 L 0.78125 0 L -0.03125 -1.875 L 0.453125 -1.875 L 1.015625 -0.53125 L 1.59375 -1.875 Z M 2.03125 -1.875 "/></g></g></g><g fill="#5e17eb" fill-opacity="1"><g transform="translate(32.746295, 38.435684)"><g><path d="M 1.671875 -0.34375 L 1.671875 0 L 0.21875 0 L 0.21875 -1.875 L 1.640625 -1.875 L 1.640625 -1.53125 L 0.65625 -1.53125 L 0.65625 -1.125 L 1.53125 -1.125 L 1.53125 -0.78125 L 0.65625 -0.78125 L 0.65625 -0.34375 Z M 1.671875 -0.34375 "/></g></g></g><g fill="#5e17eb" fill-opacity="1"><g transform="translate(35.481464, 38.435684)"><g><path d="M 0.21875 -1.875 L 0.65625 -1.875 L 0.65625 -0.359375 L 1.609375 -0.359375 L 1.609375 0 L 0.21875 0 Z M 0.21875 -1.875 "/></g></g></g><g fill="#5e17eb" fill-opacity="1"><g transform="translate(38.036444, 38.435684)"><g/></g></g><g fill="#5e17eb" fill-opacity="1"><g transform="translate(39.728127, 38.435684)"><g><path d="M 1.46875 -0.40625 L 0.59375 -0.40625 L 0.421875 0 L -0.03125 0 L 0.8125 -1.875 L 1.25 -1.875 L 2.078125 0 L 1.625 0 Z M 1.328125 -0.734375 L 1.03125 -1.453125 L 0.734375 -0.734375 Z M 1.328125 -0.734375 "/></g></g></g><g fill="#5e17eb" fill-opacity="1"><g transform="translate(42.71879, 38.435684)"><g><path d="M 1.5 -0.96875 L 1.890625 -0.96875 L 1.890625 -0.203125 C 1.785156 -0.128906 1.664062 -0.0703125 1.53125 -0.03125 C 1.394531 0.0078125 1.257812 0.03125 1.125 0.03125 C 0.9375 0.03125 0.765625 -0.0078125 0.609375 -0.09375 C 0.453125 -0.175781 0.328125 -0.289062 0.234375 -0.4375 C 0.148438 -0.582031 0.109375 -0.75 0.109375 -0.9375 C 0.109375 -1.125 0.148438 -1.289062 0.234375 -1.4375 C 0.328125 -1.582031 0.453125 -1.695312 0.609375 -1.78125 C 0.765625 -1.863281 0.941406 -1.90625 1.140625 -1.90625 C 1.304688 -1.90625 1.457031 -1.878906 1.59375 -1.828125 C 1.726562 -1.773438 1.835938 -1.695312 1.921875 -1.59375 L 1.640625 -1.328125 C 1.515625 -1.472656 1.351562 -1.546875 1.15625 -1.546875 C 1.039062 -1.546875 0.9375 -1.519531 0.84375 -1.46875 C 0.75 -1.414062 0.675781 -1.34375 0.625 -1.25 C 0.570312 -1.164062 0.546875 -1.0625 0.546875 -0.9375 C 0.546875 -0.820312 0.570312 -0.71875 0.625 -0.625 C 0.675781 -0.53125 0.75 -0.457031 0.84375 -0.40625 C 0.9375 -0.363281 1.039062 -0.34375 1.15625 -0.34375 C 1.28125 -0.34375 1.394531 -0.367188 1.5 -0.421875 Z M 1.5 -0.96875 "/></g></g></g><g fill="#5e17eb" fill-opacity="1"><g transform="translate(45.722898, 38.435684)"><g><path d="M 1.671875 -0.34375 L 1.671875 0 L 0.21875 0 L 0.21875 -1.875 L 1.640625 -1.875 L 1.640625 -1.53125 L 0.65625 -1.53125 L 0.65625 -1.125 L 1.53125 -1.125 L 1.53125 -0.78125 L 0.65625 -0.78125 L 0.65625 -0.34375 Z M 1.671875 -0.34375 "/></g></g></g><g fill="#5e17eb" fill-opacity="1"><g transform="translate(48.458067, 38.435684)"><g><path d="M 1.953125 -1.875 L 1.953125 0 L 1.59375 0 L 0.65625 -1.140625 L 0.65625 0 L 0.21875 0 L 0.21875 -1.875 L 0.578125 -1.875 L 1.515625 -0.734375 L 1.515625 -1.875 Z M 1.953125 -1.875 "/></g></g></g><g fill="#5e17eb" fill-opacity="1"><g transform="translate(51.561685, 38.435684)"><g><path d="M 1.125 0.03125 C 0.925781 0.03125 0.75 -0.0078125 0.59375 -0.09375 C 0.445312 -0.175781 0.328125 -0.289062 0.234375 -0.4375 C 0.148438 -0.582031 0.109375 -0.75 0.109375 -0.9375 C 0.109375 -1.125 0.148438 -1.289062 0.234375 -1.4375 C 0.328125 -1.582031 0.445312 -1.695312 0.59375 -1.78125 C 0.75 -1.863281 0.925781 -1.90625 1.125 -1.90625 C 1.289062 -1.90625 1.4375 -1.875 1.5625 -1.8125 C 1.695312 -1.757812 1.8125 -1.679688 1.90625 -1.578125 L 1.625 -1.328125 C 1.5 -1.472656 1.335938 -1.546875 1.140625 -1.546875 C 1.023438 -1.546875 0.921875 -1.519531 0.828125 -1.46875 C 0.742188 -1.414062 0.675781 -1.34375 0.625 -1.25 C 0.570312 -1.15625 0.546875 -1.050781 0.546875 -0.9375 C 0.546875 -0.820312 0.570312 -0.71875 0.625 -0.625 C 0.675781 -0.53125 0.742188 -0.457031 0.828125 -0.40625 C 0.921875 -0.363281 1.023438 -0.34375 1.140625 -0.34375 C 1.335938 -0.34375 1.5 -0.414062 1.625 -0.5625 L 1.90625 -0.296875 C 1.8125 -0.191406 1.695312 -0.109375 1.5625 -0.046875 C 1.4375 0.00390625 1.289062 0.03125 1.125 0.03125 Z M 1.125 0.03125 "/></g></g></g><g fill="#5e17eb" fill-opacity="1"><g transform="translate(54.463598, 38.435684)"><g><path d="M 1.125 -0.671875 L 1.125 0 L 0.6875 0 L 0.6875 -0.671875 L -0.03125 -1.875 L 0.421875 -1.875 L 0.921875 -1.046875 L 1.4375 -1.875 L 1.859375 -1.875 Z M 1.125 -0.671875 "/></g></g></g></svg>