<svg xmlns="http://www.w3.org/2000/svg" xmlns:xlink="http://www.w3.org/1999/xlink" width="100" zoomAndPan="magnify" viewBox="0 0 75 74.999997" height="100" preserveAspectRatio="xMidYMid meet" version="1.0"><defs><g/><clipPath id="b0edeabba4"><path d="M 5.0625 6.238281 L 70.3125 6.238281 L 70.3125 71.488281 L 5.0625 71.488281 Z M 5.0625 6.238281 " clip-rule="nonzero"/></clipPath></defs><rect x="-7.5" width="90" fill="#ffffff" y="-7.5" height="89.999996" fill-opacity="1"/><rect x="-7.5" width="90" fill="#ffffff" y="-7.5" height="89.999996" fill-opacity="1"/><g fill="#000000" fill-opacity="1"><g transform="translate(18.115236, 37.974994)"><g><path d="M 1.921875 0 L 1.65625 0 L 1.453125 -0.59375 L 0.546875 -0.59375 L 0.34375 0 L 0.078125 0 L 0.828125 -2.140625 L 1.1875 -2.140625 Z M 0.984375 -1.875 L 0.625 -0.796875 L 1.390625 -0.796875 L 1.015625 -1.875 Z M 0.984375 -1.875 "/></g></g><g transform="translate(20.127931, 37.974994)"><g><path d="M 0.84375 0.03125 C 0.707031 0.03125 0.585938 0 0.484375 -0.0625 C 0.390625 -0.125 0.3125 -0.21875 0.25 -0.34375 C 0.195312 -0.46875 0.171875 -0.625 0.171875 -0.8125 C 0.171875 -0.988281 0.203125 -1.140625 0.265625 -1.265625 C 0.328125 -1.390625 0.40625 -1.484375 0.5 -1.546875 C 0.601562 -1.609375 0.722656 -1.640625 0.859375 -1.640625 C 0.972656 -1.640625 1.070312 -1.617188 1.15625 -1.578125 C 1.238281 -1.546875 1.3125 -1.484375 1.375 -1.390625 L 1.40625 -1.390625 L 1.40625 -2.265625 L 1.640625 -2.265625 L 1.640625 0 L 1.40625 0 L 1.40625 -0.234375 L 1.375 -0.234375 C 1.320312 -0.160156 1.25 -0.0976562 1.15625 -0.046875 C 1.070312 0.00390625 0.96875 0.03125 0.84375 0.03125 Z M 0.90625 -0.1875 C 1.0625 -0.1875 1.179688 -0.238281 1.265625 -0.34375 C 1.359375 -0.445312 1.40625 -0.601562 1.40625 -0.8125 C 1.40625 -1.019531 1.359375 -1.175781 1.265625 -1.28125 C 1.179688 -1.382812 1.0625 -1.4375 0.90625 -1.4375 C 0.757812 -1.4375 0.640625 -1.382812 0.546875 -1.28125 C 0.460938 -1.175781 0.421875 -1.019531 0.421875 -0.8125 C 0.421875 -0.394531 0.582031 -0.1875 0.90625 -0.1875 Z M 0.90625 -0.1875 "/></g></g><g transform="translate(22.05713, 37.974994)"><g><path d="M 0.84375 0.03125 C 0.707031 0.03125 0.585938 0 0.484375 -0.0625 C 0.390625 -0.125 0.3125 -0.21875 0.25 -0.34375 C 0.195312 -0.46875 0.171875 -0.625 0.171875 -0.8125 C 0.171875 -0.988281 0.203125 -1.140625 0.265625 -1.265625 C 0.328125 -1.390625 0.40625 -1.484375 0.5 -1.546875 C 0.601562 -1.609375 0.722656 -1.640625 0.859375 -1.640625 C 0.972656 -1.640625 1.070312 -1.617188 1.15625 -1.578125 C 1.238281 -1.546875 1.3125 -1.484375 1.375 -1.390625 L 1.40625 -1.390625 L 1.40625 -2.265625 L 1.640625 -2.265625 L 1.640625 0 L 1.40625 0 L 1.40625 -0.234375 L 1.375 -0.234375 C 1.320312 -0.160156 1.25 -0.0976562 1.15625 -0.046875 C 1.070312 0.00390625 0.96875 0.03125 0.84375 0.03125 Z M 0.90625 -0.1875 C 1.0625 -0.1875 1.179688 -0.238281 1.265625 -0.34375 C 1.359375 -0.445312 1.40625 -0.601562 1.40625 -0.8125 C 1.40625 -1.019531 1.359375 -1.175781 1.265625 -1.28125 C 1.179688 -1.382812 1.0625 -1.4375 0.90625 -1.4375 C 0.757812 -1.4375 0.640625 -1.382812 0.546875 -1.28125 C 0.460938 -1.175781 0.421875 -1.019531 0.421875 -0.8125 C 0.421875 -0.394531 0.582031 -0.1875 0.90625 -0.1875 Z M 0.90625 -0.1875 "/></g></g><g transform="translate(23.986329, 37.974994)"><g/></g><g transform="translate(24.721681, 37.974994)"><g><path d="M 0.671875 0.03125 C 0.503906 0.03125 0.375 -0.0078125 0.28125 -0.09375 C 0.195312 -0.175781 0.15625 -0.296875 0.15625 -0.453125 C 0.15625 -0.546875 0.175781 -0.625 0.21875 -0.6875 C 0.257812 -0.757812 0.320312 -0.816406 0.40625 -0.859375 C 0.488281 -0.898438 0.597656 -0.929688 0.734375 -0.953125 C 0.847656 -0.972656 0.9375 -0.992188 1 -1.015625 C 1.0625 -1.035156 1.101562 -1.0625 1.125 -1.09375 C 1.144531 -1.125 1.15625 -1.164062 1.15625 -1.21875 C 1.15625 -1.289062 1.128906 -1.34375 1.078125 -1.375 C 1.023438 -1.414062 0.941406 -1.4375 0.828125 -1.4375 C 0.722656 -1.4375 0.632812 -1.414062 0.5625 -1.375 C 0.488281 -1.332031 0.421875 -1.273438 0.359375 -1.203125 L 0.328125 -1.203125 L 0.21875 -1.359375 C 0.28125 -1.453125 0.363281 -1.519531 0.46875 -1.5625 C 0.570312 -1.613281 0.691406 -1.640625 0.828125 -1.640625 C 1.023438 -1.640625 1.164062 -1.597656 1.25 -1.515625 C 1.34375 -1.429688 1.390625 -1.316406 1.390625 -1.171875 L 1.390625 -0.3125 C 1.390625 -0.226562 1.425781 -0.1875 1.5 -0.1875 C 1.53125 -0.1875 1.554688 -0.191406 1.578125 -0.203125 L 1.59375 -0.1875 L 1.625 -0.03125 C 1.601562 -0.0078125 1.578125 0 1.546875 0 C 1.523438 0.0078125 1.5 0.015625 1.46875 0.015625 C 1.375 0.015625 1.304688 -0.00390625 1.265625 -0.046875 C 1.222656 -0.0859375 1.191406 -0.144531 1.171875 -0.21875 L 1.140625 -0.21875 C 1.097656 -0.132812 1.035156 -0.0703125 0.953125 -0.03125 C 0.878906 0.0078125 0.785156 0.03125 0.671875 0.03125 Z M 0.71875 -0.15625 C 0.8125 -0.15625 0.890625 -0.175781 0.953125 -0.21875 C 1.015625 -0.257812 1.0625 -0.316406 1.09375 -0.390625 C 1.132812 -0.472656 1.15625 -0.5625 1.15625 -0.65625 L 1.15625 -0.859375 L 1.125 -0.875 C 1.09375 -0.84375 1.050781 -0.816406 1 -0.796875 C 0.945312 -0.785156 0.875 -0.773438 0.78125 -0.765625 C 0.6875 -0.742188 0.609375 -0.71875 0.546875 -0.6875 C 0.492188 -0.664062 0.457031 -0.632812 0.4375 -0.59375 C 0.414062 -0.5625 0.40625 -0.515625 0.40625 -0.453125 C 0.40625 -0.359375 0.429688 -0.285156 0.484375 -0.234375 C 0.546875 -0.179688 0.625 -0.15625 0.71875 -0.15625 Z M 0.71875 -0.15625 "/></g></g><g transform="translate(26.393068, 37.974994)"><g/></g><g transform="translate(27.128419, 37.974994)"><g><path d="M 0.640625 0.03125 C 0.523438 0.03125 0.4375 0 0.375 -0.0625 C 0.3125 -0.132812 0.28125 -0.234375 0.28125 -0.359375 L 0.28125 -2.265625 L 0.515625 -2.265625 L 0.515625 -0.375 C 0.515625 -0.300781 0.523438 -0.25 0.546875 -0.21875 C 0.578125 -0.195312 0.617188 -0.1875 0.671875 -0.1875 C 0.703125 -0.1875 0.738281 -0.191406 0.78125 -0.203125 L 0.796875 -0.1875 L 0.828125 0 C 0.804688 0.0078125 0.78125 0.015625 0.75 0.015625 C 0.71875 0.0234375 0.679688 0.03125 0.640625 0.03125 Z M 0.640625 0.03125 "/></g></g><g transform="translate(28.007325, 37.974994)"><g><path d="M 0.40625 -1.921875 C 0.351562 -1.921875 0.3125 -1.9375 0.28125 -1.96875 C 0.25 -2 0.234375 -2.039062 0.234375 -2.09375 C 0.234375 -2.144531 0.25 -2.1875 0.28125 -2.21875 C 0.3125 -2.25 0.351562 -2.265625 0.40625 -2.265625 C 0.457031 -2.265625 0.5 -2.25 0.53125 -2.21875 C 0.5625 -2.1875 0.578125 -2.144531 0.578125 -2.09375 C 0.578125 -2.039062 0.5625 -2 0.53125 -1.96875 C 0.5 -1.9375 0.457031 -1.921875 0.40625 -1.921875 Z M 0.28125 0 L 0.28125 -1.609375 L 0.515625 -1.609375 L 0.515625 0 Z M 0.28125 0 "/></g></g><g transform="translate(28.808595, 37.974994)"><g><path d="M 1.09375 -0.25 L 1.171875 -0.078125 C 1.128906 -0.046875 1.078125 -0.0195312 1.015625 0 C 0.953125 0.0195312 0.882812 0.03125 0.8125 0.03125 C 0.507812 0.03125 0.359375 -0.125 0.359375 -0.4375 L 0.359375 -1.421875 L 0.078125 -1.421875 L 0.078125 -1.625 L 0.359375 -1.625 L 0.359375 -1.953125 L 0.59375 -2 L 0.59375 -1.625 L 1.109375 -1.625 L 1.109375 -1.421875 L 0.59375 -1.421875 L 0.59375 -0.46875 C 0.59375 -0.28125 0.671875 -0.1875 0.828125 -0.1875 C 0.921875 -0.1875 1 -0.207031 1.0625 -0.25 Z M 1.09375 -0.25 "/></g></g><g transform="translate(30.039064, 37.974994)"><g><path d="M 1.09375 -0.25 L 1.171875 -0.078125 C 1.128906 -0.046875 1.078125 -0.0195312 1.015625 0 C 0.953125 0.0195312 0.882812 0.03125 0.8125 0.03125 C 0.507812 0.03125 0.359375 -0.125 0.359375 -0.4375 L 0.359375 -1.421875 L 0.078125 -1.421875 L 0.078125 -1.625 L 0.359375 -1.625 L 0.359375 -1.953125 L 0.59375 -2 L 0.59375 -1.625 L 1.109375 -1.625 L 1.109375 -1.421875 L 0.59375 -1.421875 L 0.59375 -0.46875 C 0.59375 -0.28125 0.671875 -0.1875 0.828125 -0.1875 C 0.921875 -0.1875 1 -0.207031 1.0625 -0.25 Z M 1.09375 -0.25 "/></g></g><g transform="translate(31.269532, 37.974994)"><g><path d="M 0.640625 0.03125 C 0.523438 0.03125 0.4375 0 0.375 -0.0625 C 0.3125 -0.132812 0.28125 -0.234375 0.28125 -0.359375 L 0.28125 -2.265625 L 0.515625 -2.265625 L 0.515625 -0.375 C 0.515625 -0.300781 0.523438 -0.25 0.546875 -0.21875 C 0.578125 -0.195312 0.617188 -0.1875 0.671875 -0.1875 C 0.703125 -0.1875 0.738281 -0.191406 0.78125 -0.203125 L 0.796875 -0.1875 L 0.828125 0 C 0.804688 0.0078125 0.78125 0.015625 0.75 0.015625 C 0.71875 0.0234375 0.679688 0.03125 0.640625 0.03125 Z M 0.640625 0.03125 "/></g></g><g transform="translate(32.148439, 37.974994)"><g><path d="M 1.546875 -0.75 L 0.421875 -0.75 C 0.429688 -0.550781 0.476562 -0.40625 0.5625 -0.3125 C 0.65625 -0.226562 0.78125 -0.1875 0.9375 -0.1875 C 1.050781 -0.1875 1.140625 -0.207031 1.203125 -0.25 C 1.273438 -0.289062 1.332031 -0.351562 1.375 -0.4375 L 1.40625 -0.4375 L 1.5625 -0.34375 C 1.507812 -0.226562 1.429688 -0.132812 1.328125 -0.0625 C 1.234375 0 1.101562 0.03125 0.9375 0.03125 C 0.78125 0.03125 0.644531 0 0.53125 -0.0625 C 0.414062 -0.125 0.328125 -0.21875 0.265625 -0.34375 C 0.203125 -0.46875 0.171875 -0.625 0.171875 -0.8125 C 0.171875 -0.988281 0.203125 -1.140625 0.265625 -1.265625 C 0.335938 -1.390625 0.425781 -1.484375 0.53125 -1.546875 C 0.644531 -1.609375 0.773438 -1.640625 0.921875 -1.640625 C 1.117188 -1.640625 1.273438 -1.582031 1.390625 -1.46875 C 1.515625 -1.351562 1.578125 -1.179688 1.578125 -0.953125 C 1.578125 -0.859375 1.578125 -0.796875 1.578125 -0.765625 Z M 1.34375 -0.953125 C 1.332031 -1.117188 1.289062 -1.238281 1.21875 -1.3125 C 1.15625 -1.394531 1.054688 -1.4375 0.921875 -1.4375 C 0.773438 -1.4375 0.660156 -1.394531 0.578125 -1.3125 C 0.503906 -1.238281 0.457031 -1.117188 0.4375 -0.953125 Z M 1.34375 -0.953125 "/></g></g><g transform="translate(33.871095, 37.974994)"><g/></g><g transform="translate(34.606447, 37.974994)"><g><path d="M 1.078125 0.03125 C 0.953125 0.03125 0.84375 0.0078125 0.75 -0.03125 C 0.664062 -0.0820312 0.597656 -0.144531 0.546875 -0.21875 L 0.515625 -0.21875 L 0.515625 0 L 0.28125 0 L 0.28125 -2.265625 L 0.515625 -2.265625 L 0.515625 -1.375 L 0.546875 -1.375 C 0.671875 -1.550781 0.851562 -1.640625 1.09375 -1.640625 C 1.21875 -1.640625 1.328125 -1.609375 1.421875 -1.546875 C 1.523438 -1.492188 1.601562 -1.398438 1.65625 -1.265625 C 1.71875 -1.140625 1.75 -0.988281 1.75 -0.8125 C 1.75 -0.625 1.71875 -0.46875 1.65625 -0.34375 C 1.601562 -0.21875 1.523438 -0.125 1.421875 -0.0625 C 1.316406 0 1.203125 0.03125 1.078125 0.03125 Z M 1.015625 -0.1875 C 1.335938 -0.1875 1.5 -0.394531 1.5 -0.8125 C 1.5 -1.019531 1.457031 -1.175781 1.375 -1.28125 C 1.289062 -1.382812 1.171875 -1.4375 1.015625 -1.4375 C 0.867188 -1.4375 0.75 -1.382812 0.65625 -1.28125 C 0.5625 -1.175781 0.515625 -1.019531 0.515625 -0.8125 C 0.515625 -0.601562 0.5625 -0.445312 0.65625 -0.34375 C 0.75 -0.238281 0.867188 -0.1875 1.015625 -0.1875 Z M 1.015625 -0.1875 "/></g></g><g transform="translate(36.534181, 37.974994)"><g><path d="M 0.40625 -1.921875 C 0.351562 -1.921875 0.3125 -1.9375 0.28125 -1.96875 C 0.25 -2 0.234375 -2.039062 0.234375 -2.09375 C 0.234375 -2.144531 0.25 -2.1875 0.28125 -2.21875 C 0.3125 -2.25 0.351562 -2.265625 0.40625 -2.265625 C 0.457031 -2.265625 0.5 -2.25 0.53125 -2.21875 C 0.5625 -2.1875 0.578125 -2.144531 0.578125 -2.09375 C 0.578125 -2.039062 0.5625 -2 0.53125 -1.96875 C 0.5 -1.9375 0.457031 -1.921875 0.40625 -1.921875 Z M 0.28125 0 L 0.28125 -1.609375 L 0.515625 -1.609375 L 0.515625 0 Z M 0.28125 0 "/></g></g><g transform="translate(37.33545, 37.974994)"><g><path d="M 1.09375 -0.25 L 1.171875 -0.078125 C 1.128906 -0.046875 1.078125 -0.0195312 1.015625 0 C 0.953125 0.0195312 0.882812 0.03125 0.8125 0.03125 C 0.507812 0.03125 0.359375 -0.125 0.359375 -0.4375 L 0.359375 -1.421875 L 0.078125 -1.421875 L 0.078125 -1.625 L 0.359375 -1.625 L 0.359375 -1.953125 L 0.59375 -2 L 0.59375 -1.625 L 1.109375 -1.625 L 1.109375 -1.421875 L 0.59375 -1.421875 L 0.59375 -0.46875 C 0.59375 -0.28125 0.671875 -0.1875 0.828125 -0.1875 C 0.921875 -0.1875 1 -0.207031 1.0625 -0.25 Z M 1.09375 -0.25 "/></g></g><g transform="translate(38.565919, 37.974994)"><g/></g><g transform="translate(39.301271, 37.974994)"><g><path d="M 0.921875 0.03125 C 0.773438 0.03125 0.644531 0 0.53125 -0.0625 C 0.414062 -0.125 0.328125 -0.21875 0.265625 -0.34375 C 0.203125 -0.476562 0.171875 -0.632812 0.171875 -0.8125 C 0.171875 -0.988281 0.203125 -1.140625 0.265625 -1.265625 C 0.328125 -1.390625 0.414062 -1.484375 0.53125 -1.546875 C 0.644531 -1.609375 0.773438 -1.640625 0.921875 -1.640625 C 1.078125 -1.640625 1.210938 -1.609375 1.328125 -1.546875 C 1.441406 -1.484375 1.523438 -1.390625 1.578125 -1.265625 C 1.640625 -1.140625 1.671875 -0.988281 1.671875 -0.8125 C 1.671875 -0.632812 1.640625 -0.476562 1.578125 -0.34375 C 1.523438 -0.21875 1.441406 -0.125 1.328125 -0.0625 C 1.210938 0 1.078125 0.03125 0.921875 0.03125 Z M 0.921875 -0.1875 C 1.085938 -0.1875 1.210938 -0.234375 1.296875 -0.328125 C 1.378906 -0.429688 1.421875 -0.59375 1.421875 -0.8125 C 1.421875 -1.019531 1.378906 -1.175781 1.296875 -1.28125 C 1.210938 -1.382812 1.085938 -1.4375 0.921875 -1.4375 C 0.765625 -1.4375 0.640625 -1.382812 0.546875 -1.28125 C 0.460938 -1.175781 0.421875 -1.019531 0.421875 -0.8125 C 0.421875 -0.59375 0.460938 -0.429688 0.546875 -0.328125 C 0.640625 -0.234375 0.765625 -0.1875 0.921875 -0.1875 Z M 0.921875 -0.1875 "/></g></g><g transform="translate(41.155763, 37.974994)"><g><path d="M 0.359375 0 L 0.359375 -1.421875 L 0.078125 -1.421875 L 0.078125 -1.625 L 0.359375 -1.625 C 0.335938 -1.6875 0.328125 -1.75 0.328125 -1.8125 C 0.328125 -1.914062 0.347656 -2.003906 0.390625 -2.078125 C 0.441406 -2.148438 0.503906 -2.203125 0.578125 -2.234375 C 0.660156 -2.273438 0.753906 -2.296875 0.859375 -2.296875 C 1.023438 -2.296875 1.148438 -2.257812 1.234375 -2.1875 L 1.140625 -2.015625 L 1.109375 -2.015625 C 1.046875 -2.066406 0.960938 -2.09375 0.859375 -2.09375 C 0.765625 -2.09375 0.691406 -2.066406 0.640625 -2.015625 C 0.597656 -1.972656 0.578125 -1.90625 0.578125 -1.8125 C 0.578125 -1.757812 0.582031 -1.695312 0.59375 -1.625 L 1.109375 -1.625 L 1.109375 -1.421875 L 0.59375 -1.421875 L 0.59375 0 Z M 0.359375 0 "/></g></g><g transform="translate(42.30713, 37.974994)"><g/></g><g transform="translate(43.042482, 37.974994)"><g><path d="M 1.078125 0.03125 C 0.953125 0.03125 0.84375 0.0078125 0.75 -0.03125 C 0.664062 -0.0820312 0.597656 -0.144531 0.546875 -0.21875 L 0.515625 -0.21875 L 0.515625 0 L 0.28125 0 L 0.28125 -2.265625 L 0.515625 -2.265625 L 0.515625 -1.375 L 0.546875 -1.375 C 0.671875 -1.550781 0.851562 -1.640625 1.09375 -1.640625 C 1.21875 -1.640625 1.328125 -1.609375 1.421875 -1.546875 C 1.523438 -1.492188 1.601562 -1.398438 1.65625 -1.265625 C 1.71875 -1.140625 1.75 -0.988281 1.75 -0.8125 C 1.75 -0.625 1.71875 -0.46875 1.65625 -0.34375 C 1.601562 -0.21875 1.523438 -0.125 1.421875 -0.0625 C 1.316406 0 1.203125 0.03125 1.078125 0.03125 Z M 1.015625 -0.1875 C 1.335938 -0.1875 1.5 -0.394531 1.5 -0.8125 C 1.5 -1.019531 1.457031 -1.175781 1.375 -1.28125 C 1.289062 -1.382812 1.171875 -1.4375 1.015625 -1.4375 C 0.867188 -1.4375 0.75 -1.382812 0.65625 -1.28125 C 0.5625 -1.175781 0.515625 -1.019531 0.515625 -0.8125 C 0.515625 -0.601562 0.5625 -0.445312 0.65625 -0.34375 C 0.75 -0.238281 0.867188 -0.1875 1.015625 -0.1875 Z M 1.015625 -0.1875 "/></g></g><g transform="translate(44.970216, 37.974994)"><g><path d="M 0.921875 0.03125 C 0.773438 0.03125 0.644531 0 0.53125 -0.0625 C 0.414062 -0.125 0.328125 -0.21875 0.265625 -0.34375 C 0.203125 -0.476562 0.171875 -0.632812 0.171875 -0.8125 C 0.171875 -0.988281 0.203125 -1.140625 0.265625 -1.265625 C 0.328125 -1.390625 0.414062 -1.484375 0.53125 -1.546875 C 0.644531 -1.609375 0.773438 -1.640625 0.921875 -1.640625 C 1.078125 -1.640625 1.210938 -1.609375 1.328125 -1.546875 C 1.441406 -1.484375 1.523438 -1.390625 1.578125 -1.265625 C 1.640625 -1.140625 1.671875 -0.988281 1.671875 -0.8125 C 1.671875 -0.632812 1.640625 -0.476562 1.578125 -0.34375 C 1.523438 -0.21875 1.441406 -0.125 1.328125 -0.0625 C 1.210938 0 1.078125 0.03125 0.921875 0.03125 Z M 0.921875 -0.1875 C 1.085938 -0.1875 1.210938 -0.234375 1.296875 -0.328125 C 1.378906 -0.429688 1.421875 -0.59375 1.421875 -0.8125 C 1.421875 -1.019531 1.378906 -1.175781 1.296875 -1.28125 C 1.210938 -1.382812 1.085938 -1.4375 0.921875 -1.4375 C 0.765625 -1.4375 0.640625 -1.382812 0.546875 -1.28125 C 0.460938 -1.175781 0.421875 -1.019531 0.421875 -0.8125 C 0.421875 -0.59375 0.460938 -0.429688 0.546875 -0.328125 C 0.640625 -0.234375 0.765625 -0.1875 0.921875 -0.1875 Z M 0.921875 -0.1875 "/></g></g><g transform="translate(46.824708, 37.974994)"><g><path d="M 0.84375 0.03125 C 0.707031 0.03125 0.585938 0 0.484375 -0.0625 C 0.390625 -0.125 0.3125 -0.21875 0.25 -0.34375 C 0.195312 -0.46875 0.171875 -0.625 0.171875 -0.8125 C 0.171875 -0.988281 0.203125 -1.140625 0.265625 -1.265625 C 0.328125 -1.390625 0.40625 -1.484375 0.5 -1.546875 C 0.601562 -1.609375 0.722656 -1.640625 0.859375 -1.640625 C 0.972656 -1.640625 1.070312 -1.617188 1.15625 -1.578125 C 1.238281 -1.546875 1.3125 -1.484375 1.375 -1.390625 L 1.40625 -1.390625 L 1.40625 -2.265625 L 1.640625 -2.265625 L 1.640625 0 L 1.40625 0 L 1.40625 -0.234375 L 1.375 -0.234375 C 1.320312 -0.160156 1.25 -0.0976562 1.15625 -0.046875 C 1.070312 0.00390625 0.96875 0.03125 0.84375 0.03125 Z M 0.90625 -0.1875 C 1.0625 -0.1875 1.179688 -0.238281 1.265625 -0.34375 C 1.359375 -0.445312 1.40625 -0.601562 1.40625 -0.8125 C 1.40625 -1.019531 1.359375 -1.175781 1.265625 -1.28125 C 1.179688 -1.382812 1.0625 -1.4375 0.90625 -1.4375 C 0.757812 -1.4375 0.640625 -1.382812 0.546875 -1.28125 C 0.460938 -1.175781 0.421875 -1.019531 0.421875 -0.8125 C 0.421875 -0.394531 0.582031 -0.1875 0.90625 -0.1875 Z M 0.90625 -0.1875 "/></g></g><g transform="translate(48.753907, 37.974994)"><g><path d="M 0.328125 0.6875 C 0.265625 0.6875 0.207031 0.679688 0.15625 0.671875 C 0.113281 0.660156 0.078125 0.648438 0.046875 0.640625 L 0.09375 0.4375 L 0.125 0.4375 C 0.144531 0.445312 0.171875 0.457031 0.203125 0.46875 C 0.242188 0.476562 0.28125 0.484375 0.3125 0.484375 C 0.375 0.484375 0.425781 0.472656 0.46875 0.453125 C 0.519531 0.429688 0.5625 0.398438 0.59375 0.359375 C 0.625 0.316406 0.648438 0.265625 0.671875 0.203125 L 0.734375 0.03125 L 0.078125 -1.609375 L 0.34375 -1.609375 L 0.84375 -0.296875 L 0.875 -0.296875 L 1.375 -1.609375 L 1.609375 -1.609375 L 0.890625 0.25 C 0.847656 0.351562 0.800781 0.4375 0.75 0.5 C 0.695312 0.5625 0.632812 0.609375 0.5625 0.640625 C 0.5 0.671875 0.421875 0.6875 0.328125 0.6875 Z M 0.328125 0.6875 "/></g></g><g transform="translate(50.457521, 37.974994)"><g/></g><g transform="translate(51.192872, 37.974994)"><g><path d="M 1.09375 -0.25 L 1.171875 -0.078125 C 1.128906 -0.046875 1.078125 -0.0195312 1.015625 0 C 0.953125 0.0195312 0.882812 0.03125 0.8125 0.03125 C 0.507812 0.03125 0.359375 -0.125 0.359375 -0.4375 L 0.359375 -1.421875 L 0.078125 -1.421875 L 0.078125 -1.625 L 0.359375 -1.625 L 0.359375 -1.953125 L 0.59375 -2 L 0.59375 -1.625 L 1.109375 -1.625 L 1.109375 -1.421875 L 0.59375 -1.421875 L 0.59375 -0.46875 C 0.59375 -0.28125 0.671875 -0.1875 0.828125 -0.1875 C 0.921875 -0.1875 1 -0.207031 1.0625 -0.25 Z M 1.09375 -0.25 "/></g></g><g transform="translate(52.423341, 37.974994)"><g><path d="M 1.546875 -0.75 L 0.421875 -0.75 C 0.429688 -0.550781 0.476562 -0.40625 0.5625 -0.3125 C 0.65625 -0.226562 0.78125 -0.1875 0.9375 -0.1875 C 1.050781 -0.1875 1.140625 -0.207031 1.203125 -0.25 C 1.273438 -0.289062 1.332031 -0.351562 1.375 -0.4375 L 1.40625 -0.4375 L 1.5625 -0.34375 C 1.507812 -0.226562 1.429688 -0.132812 1.328125 -0.0625 C 1.234375 0 1.101562 0.03125 0.9375 0.03125 C 0.78125 0.03125 0.644531 0 0.53125 -0.0625 C 0.414062 -0.125 0.328125 -0.21875 0.265625 -0.34375 C 0.203125 -0.46875 0.171875 -0.625 0.171875 -0.8125 C 0.171875 -0.988281 0.203125 -1.140625 0.265625 -1.265625 C 0.335938 -1.390625 0.425781 -1.484375 0.53125 -1.546875 C 0.644531 -1.609375 0.773438 -1.640625 0.921875 -1.640625 C 1.117188 -1.640625 1.273438 -1.582031 1.390625 -1.46875 C 1.515625 -1.351562 1.578125 -1.179688 1.578125 -0.953125 C 1.578125 -0.859375 1.578125 -0.796875 1.578125 -0.765625 Z M 1.34375 -0.953125 C 1.332031 -1.117188 1.289062 -1.238281 1.21875 -1.3125 C 1.15625 -1.394531 1.054688 -1.4375 0.921875 -1.4375 C 0.773438 -1.4375 0.660156 -1.394531 0.578125 -1.3125 C 0.503906 -1.238281 0.457031 -1.117188 0.4375 -0.953125 Z M 1.34375 -0.953125 "/></g></g><g transform="translate(54.145997, 37.974994)"><g><path d="M 0.34375 0 L 0.078125 0 L 0.578125 -0.84375 L 0.09375 -1.609375 L 0.375 -1.609375 L 0.734375 -1 L 0.78125 -1 L 1.15625 -1.609375 L 1.40625 -1.609375 L 0.9375 -0.84375 L 1.4375 0 L 1.15625 0 L 0.765625 -0.6875 L 0.734375 -0.6875 Z M 0.34375 0 "/></g></g><g transform="translate(55.651857, 37.974994)"><g><path d="M 1.09375 -0.25 L 1.171875 -0.078125 C 1.128906 -0.046875 1.078125 -0.0195312 1.015625 0 C 0.953125 0.0195312 0.882812 0.03125 0.8125 0.03125 C 0.507812 0.03125 0.359375 -0.125 0.359375 -0.4375 L 0.359375 -1.421875 L 0.078125 -1.421875 L 0.078125 -1.625 L 0.359375 -1.625 L 0.359375 -1.953125 L 0.59375 -2 L 0.59375 -1.625 L 1.109375 -1.625 L 1.109375 -1.421875 L 0.59375 -1.421875 L 0.59375 -0.46875 C 0.59375 -0.28125 0.671875 -0.1875 0.828125 -0.1875 C 0.921875 -0.1875 1 -0.207031 1.0625 -0.25 Z M 1.09375 -0.25 "/></g></g></g><g clip-path="url(#b0edeabba4)"><path fill="#bd081c" d="M 70.3125 38.863281 C 70.3125 39.929688 70.261719 40.996094 70.15625 42.058594 C 70.050781 43.125 69.894531 44.179688 69.6875 45.226562 C 69.476562 46.273438 69.21875 47.308594 68.90625 48.332031 C 68.597656 49.355469 68.238281 50.359375 67.828125 51.347656 C 67.421875 52.335938 66.964844 53.300781 66.460938 54.242188 C 65.957031 55.183594 65.40625 56.097656 64.8125 56.988281 C 64.21875 57.875 63.585938 58.734375 62.90625 59.558594 C 62.230469 60.386719 61.511719 61.175781 60.757812 61.933594 C 60 62.6875 59.210938 63.402344 58.382812 64.082031 C 57.558594 64.761719 56.703125 65.394531 55.8125 65.988281 C 54.925781 66.582031 54.007812 67.132812 53.066406 67.636719 C 52.125 68.140625 51.160156 68.59375 50.171875 69.003906 C 49.183594 69.414062 48.179688 69.773438 47.15625 70.082031 C 46.136719 70.394531 45.101562 70.652344 44.050781 70.859375 C 43.003906 71.070312 41.949219 71.226562 40.886719 71.332031 C 39.820312 71.433594 38.757812 71.488281 37.6875 71.488281 C 36.617188 71.488281 35.554688 71.433594 34.488281 71.332031 C 33.425781 71.226562 32.371094 71.070312 31.324219 70.859375 C 30.273438 70.652344 29.238281 70.394531 28.21875 70.082031 C 27.195312 69.773438 26.191406 69.414062 25.203125 69.003906 C 24.214844 68.59375 23.25 68.140625 22.308594 67.636719 C 21.367188 67.132812 20.449219 66.582031 19.5625 65.988281 C 18.671875 65.394531 17.816406 64.761719 16.992188 64.082031 C 16.164062 63.402344 15.375 62.6875 14.617188 61.933594 C 13.863281 61.175781 13.144531 60.386719 12.46875 59.558594 C 11.789062 58.734375 11.15625 57.875 10.5625 56.988281 C 9.96875 56.097656 9.417969 55.183594 8.914062 54.242188 C 8.410156 53.300781 7.953125 52.335938 7.546875 51.347656 C 7.136719 50.359375 6.777344 49.355469 6.46875 48.332031 C 6.15625 47.308594 5.898438 46.273438 5.6875 45.226562 C 5.480469 44.179688 5.324219 43.125 5.21875 42.058594 C 5.113281 40.996094 5.0625 39.929688 5.0625 38.863281 C 5.0625 37.792969 5.113281 36.726562 5.21875 35.664062 C 5.324219 34.601562 5.480469 33.546875 5.6875 32.496094 C 5.898438 31.449219 6.15625 30.414062 6.46875 29.390625 C 6.777344 28.371094 7.136719 27.363281 7.546875 26.378906 C 7.953125 25.390625 8.410156 24.425781 8.914062 23.484375 C 9.417969 22.539062 9.96875 21.625 10.5625 20.738281 C 11.15625 19.847656 11.789062 18.992188 12.46875 18.164062 C 13.144531 17.339844 13.863281 16.546875 14.617188 15.792969 C 15.375 15.039062 16.164062 14.320312 16.992188 13.644531 C 17.816406 12.964844 18.671875 12.328125 19.5625 11.734375 C 20.449219 11.140625 21.367188 10.59375 22.308594 10.089844 C 23.25 9.585938 24.214844 9.128906 25.203125 8.722656 C 26.191406 8.3125 27.195312 7.953125 28.21875 7.640625 C 29.238281 7.332031 30.273438 7.074219 31.324219 6.863281 C 32.371094 6.65625 33.425781 6.5 34.488281 6.394531 C 35.554688 6.289062 36.617188 6.238281 37.6875 6.238281 C 38.757812 6.238281 39.820312 6.289062 40.886719 6.394531 C 41.949219 6.5 43.003906 6.65625 44.050781 6.863281 C 45.101562 7.074219 46.136719 7.332031 47.15625 7.640625 C 48.179688 7.953125 49.183594 8.3125 50.171875 8.722656 C 51.160156 9.128906 52.125 9.585938 53.066406 10.089844 C 54.007812 10.59375 54.925781 11.140625 55.8125 11.734375 C 56.703125 12.328125 57.558594 12.964844 58.382812 13.644531 C 59.210938 14.320312 60 15.039062 60.757812 15.792969 C 61.511719 16.546875 62.230469 17.339844 62.90625 18.164062 C 63.585938 18.992188 64.21875 19.847656 64.8125 20.738281 C 65.40625 21.625 65.957031 22.539062 66.460938 23.484375 C 66.964844 24.425781 67.421875 25.390625 67.828125 26.378906 C 68.238281 27.363281 68.597656 28.371094 68.90625 29.390625 C 69.21875 30.414062 69.476562 31.449219 69.6875 32.496094 C 69.894531 33.546875 70.050781 34.601562 70.15625 35.664062 C 70.261719 36.726562 70.3125 37.792969 70.3125 38.863281 Z M 70.3125 38.863281 " fill-opacity="1" fill-rule="nonzero"/></g><path fill="#ffffff" d="M 23.984375 31.75 L 51.390625 31.75 C 51.933594 31.75 52.433594 31.96875 52.804688 32.335938 C 52.824219 32.335938 52.824219 32.359375 52.847656 32.382812 C 53.195312 32.75 53.390625 33.230469 53.390625 33.75 L 53.390625 53.847656 C 53.390625 54.390625 53.171875 54.890625 52.804688 55.261719 L 52.78125 55.285156 C 52.433594 55.632812 51.933594 55.847656 51.390625 55.847656 L 23.984375 55.847656 C 23.441406 55.847656 22.941406 55.632812 22.570312 55.261719 C 22.550781 55.242188 22.550781 55.21875 22.527344 55.21875 C 22.179688 54.847656 21.984375 54.371094 21.984375 53.847656 L 21.984375 33.75 C 21.984375 33.1875 22.203125 32.683594 22.570312 32.335938 L 22.59375 32.316406 C 22.941406 31.96875 23.441406 31.75 23.984375 31.75 Z M 51.390625 33.1875 L 23.984375 33.1875 C 23.832031 33.1875 23.703125 33.25 23.59375 33.359375 L 23.09375 32.835938 L 23.59375 33.359375 C 23.484375 33.445312 23.441406 33.597656 23.441406 33.75 L 23.441406 53.847656 C 23.441406 53.980469 23.484375 54.109375 23.570312 54.21875 C 23.570312 54.21875 23.59375 54.21875 23.59375 54.238281 C 23.703125 54.328125 23.832031 54.390625 23.984375 54.390625 L 51.390625 54.390625 C 51.542969 54.390625 51.671875 54.347656 51.78125 54.238281 L 52.28125 54.738281 L 51.78125 54.238281 C 51.890625 54.132812 51.933594 54 51.933594 53.847656 L 51.933594 33.75 C 51.933594 33.597656 51.890625 33.46875 51.804688 33.382812 C 51.804688 33.382812 51.78125 33.359375 51.78125 33.359375 C 51.671875 33.25 51.542969 33.1875 51.390625 33.1875 Z M 51.390625 33.1875 " fill-opacity="1" fill-rule="nonzero"/><path fill="#ffffff" d="M 31.074219 36.96875 C 31.859375 36.96875 32.554688 37.296875 33.078125 37.796875 C 33.097656 37.820312 33.097656 37.839844 33.121094 37.839844 C 33.597656 38.363281 33.902344 39.035156 33.902344 39.796875 C 33.902344 40.582031 33.578125 41.277344 33.078125 41.796875 C 33.054688 41.820312 33.03125 41.820312 33.03125 41.84375 C 32.511719 42.320312 31.835938 42.625 31.074219 42.625 C 30.292969 42.625 29.597656 42.300781 29.074219 41.796875 C 29.054688 41.777344 29.054688 41.777344 29.03125 41.753906 C 28.550781 41.234375 28.246094 40.558594 28.246094 39.796875 C 28.246094 39.015625 28.574219 38.320312 29.074219 37.796875 L 29.097656 37.796875 C 29.597656 37.273438 30.292969 36.96875 31.074219 36.96875 Z M 32.554688 38.320312 L 32.054688 38.820312 C 31.792969 38.578125 31.46875 38.425781 31.074219 38.425781 C 30.707031 38.425781 30.359375 38.578125 30.097656 38.820312 L 29.597656 38.320312 L 30.097656 38.820312 C 29.859375 39.078125 29.707031 39.429688 29.707031 39.796875 C 29.707031 40.167969 29.835938 40.492188 30.074219 40.734375 C 30.074219 40.753906 30.097656 40.753906 30.097656 40.777344 L 29.597656 41.277344 L 30.097656 40.777344 C 30.359375 41.015625 30.683594 41.167969 31.074219 41.167969 C 31.445312 41.167969 31.773438 41.039062 32.011719 40.796875 C 32.03125 40.796875 32.03125 40.777344 32.054688 40.777344 C 32.292969 40.515625 32.445312 40.1875 32.445312 39.796875 C 32.445312 39.429688 32.316406 39.101562 32.074219 38.863281 C 32.074219 38.839844 32.054688 38.839844 32.054688 38.820312 Z M 32.554688 38.320312 " fill-opacity="1" fill-rule="nonzero"/><path fill="#ffffff" d="M 44.300781 36.96875 C 45.082031 36.96875 45.777344 37.296875 46.300781 37.796875 C 46.320312 37.820312 46.320312 37.839844 46.34375 37.839844 C 46.824219 38.363281 47.128906 39.035156 47.128906 39.796875 C 47.128906 40.582031 46.800781 41.277344 46.300781 41.796875 C 46.277344 41.820312 46.257812 41.820312 46.257812 41.84375 C 45.734375 42.320312 45.0625 42.625 44.300781 42.625 C 43.515625 42.625 42.820312 42.300781 42.296875 41.796875 L 42.296875 41.777344 C 41.777344 41.277344 41.472656 40.582031 41.472656 39.796875 C 41.472656 39.015625 41.796875 38.320312 42.296875 37.796875 C 42.320312 37.796875 42.34375 37.773438 42.34375 37.753906 C 42.863281 37.273438 43.539062 36.96875 44.300781 36.96875 Z M 45.277344 38.820312 C 45.015625 38.578125 44.667969 38.425781 44.300781 38.425781 C 43.929688 38.425781 43.601562 38.558594 43.363281 38.796875 C 43.34375 38.796875 43.34375 38.820312 43.320312 38.820312 L 42.820312 38.320312 L 43.320312 38.820312 C 43.082031 39.078125 42.929688 39.429688 42.929688 39.796875 C 42.929688 40.1875 43.082031 40.515625 43.320312 40.777344 L 42.820312 41.277344 L 43.320312 40.777344 C 43.582031 41.015625 43.90625 41.167969 44.300781 41.167969 C 44.667969 41.167969 44.996094 41.039062 45.234375 40.796875 C 45.257812 40.796875 45.257812 40.777344 45.277344 40.777344 L 45.777344 41.277344 L 45.277344 40.777344 C 45.515625 40.515625 45.667969 40.1875 45.667969 39.796875 C 45.667969 39.429688 45.539062 39.101562 45.300781 38.863281 C 45.300781 38.839844 45.277344 38.839844 45.277344 38.820312 Z M 45.277344 38.820312 " fill-opacity="1" fill-rule="nonzero"/><path fill="#ffffff" d="M 32.378906 45.386719 L 42.996094 45.386719 C 43.558594 45.386719 44.082031 45.605469 44.453125 45.976562 C 44.453125 45.996094 44.472656 46.019531 44.496094 46.019531 C 44.84375 46.386719 45.039062 46.886719 45.039062 47.433594 L 45.039062 48.910156 C 45.039062 49.476562 44.820312 49.976562 44.453125 50.347656 C 44.082031 50.714844 43.558594 50.957031 42.996094 50.957031 L 32.378906 50.957031 C 31.816406 50.957031 31.292969 50.714844 30.921875 50.347656 C 30.554688 49.976562 30.335938 49.476562 30.335938 48.910156 L 30.335938 47.433594 C 30.335938 46.867188 30.554688 46.34375 30.921875 45.976562 L 31.445312 46.496094 L 30.921875 45.976562 L 30.945312 45.953125 C 31.316406 45.605469 31.816406 45.386719 32.378906 45.386719 Z M 42.996094 46.824219 L 32.378906 46.824219 C 32.207031 46.824219 32.074219 46.886719 31.96875 46.996094 L 31.945312 46.996094 C 31.835938 47.105469 31.773438 47.257812 31.773438 47.433594 L 31.773438 48.910156 C 31.773438 49.0625 31.835938 49.214844 31.945312 49.324219 C 32.054688 49.433594 32.207031 49.5 32.378906 49.5 L 42.996094 49.5 C 43.167969 49.5 43.320312 49.433594 43.429688 49.324219 C 43.539062 49.214844 43.601562 49.0625 43.601562 48.910156 L 43.601562 47.433594 C 43.601562 47.28125 43.539062 47.128906 43.453125 47.019531 C 43.429688 47.019531 43.429688 47.019531 43.429688 46.996094 C 43.320312 46.886719 43.167969 46.824219 42.996094 46.824219 Z M 42.996094 46.824219 " fill-opacity="1" fill-rule="nonzero"/><path fill="#ffffff" d="M 52.671875 37.382812 L 54.328125 37.382812 C 54.847656 37.382812 55.328125 37.601562 55.675781 37.949219 C 56.023438 38.296875 56.242188 38.777344 56.242188 39.320312 L 56.242188 48.28125 C 56.242188 48.800781 56.023438 49.28125 55.675781 49.628906 L 55.175781 49.128906 L 55.675781 49.652344 C 55.675781 49.652344 55.652344 49.671875 55.632812 49.695312 C 55.285156 50 54.828125 50.214844 54.328125 50.214844 L 52.671875 50.214844 C 52.261719 50.214844 51.933594 49.890625 51.933594 49.476562 L 51.933594 38.101562 C 51.933594 37.710938 52.261719 37.382812 52.671875 37.382812 Z M 54.328125 38.839844 L 53.390625 38.839844 L 53.390625 48.757812 L 54.328125 48.757812 C 54.433594 48.757812 54.542969 48.714844 54.628906 48.628906 C 54.628906 48.628906 54.652344 48.628906 54.652344 48.605469 C 54.738281 48.519531 54.804688 48.410156 54.804688 48.28125 L 54.804688 39.320312 C 54.804688 39.1875 54.738281 39.058594 54.652344 38.972656 C 54.566406 38.882812 54.457031 38.839844 54.328125 38.839844 Z M 54.328125 38.839844 " fill-opacity="1" fill-rule="nonzero"/><path fill="#ffffff" d="M 21.984375 38.839844 L 21.046875 38.839844 C 20.917969 38.839844 20.808594 38.882812 20.722656 38.972656 C 20.636719 39.058594 20.570312 39.1875 20.570312 39.320312 L 20.570312 48.28125 C 20.570312 48.410156 20.636719 48.519531 20.722656 48.605469 C 20.722656 48.628906 20.746094 48.628906 20.746094 48.628906 C 20.832031 48.714844 20.941406 48.757812 21.046875 48.757812 L 21.984375 48.757812 Z M 21.046875 37.382812 L 22.703125 37.382812 C 23.113281 37.382812 23.441406 37.710938 23.441406 38.101562 L 23.441406 49.476562 C 23.441406 49.890625 23.113281 50.214844 22.703125 50.214844 L 21.046875 50.214844 C 20.546875 50.214844 20.089844 50 19.742188 49.695312 C 19.722656 49.671875 19.699219 49.652344 19.699219 49.652344 L 20.199219 49.128906 L 19.699219 49.628906 C 19.351562 49.28125 19.132812 48.800781 19.132812 48.28125 L 19.132812 39.320312 C 19.132812 38.777344 19.351562 38.296875 19.699219 37.949219 C 20.046875 37.601562 20.527344 37.382812 21.046875 37.382812 Z M 21.046875 37.382812 " fill-opacity="1" fill-rule="nonzero"/><path fill="#ffffff" d="M 44.496094 22.984375 C 44.710938 22.636719 44.605469 22.203125 44.257812 21.984375 C 43.929688 21.765625 43.472656 21.875 43.277344 22.222656 L 37.078125 32.078125 C 36.859375 32.425781 36.96875 32.859375 37.296875 33.078125 C 37.644531 33.292969 38.078125 33.1875 38.296875 32.859375 Z M 44.496094 22.984375 " fill-opacity="1" fill-rule="nonzero"/><path fill="#ffffff" d="M 32.097656 22.222656 C 31.902344 21.875 31.445312 21.765625 31.117188 21.984375 C 30.769531 22.203125 30.664062 22.636719 30.878906 22.984375 L 37.078125 32.859375 C 37.296875 33.1875 37.730469 33.292969 38.078125 33.078125 C 38.40625 32.859375 38.515625 32.425781 38.296875 32.078125 Z M 32.097656 22.222656 " fill-opacity="1" fill-rule="nonzero"/></svg>