<svg xmlns="http://www.w3.org/2000/svg" xmlns:xlink="http://www.w3.org/1999/xlink" width="100" zoomAndPan="magnify" viewBox="0 0 75 74.999997" height="100" preserveAspectRatio="xMidYMid meet" version="1.0"><defs><clipPath id="0c8cc975b4"><path d="M 8.117188 6.855469 L 66.617188 6.855469 L 66.617188 66 L 8.117188 66 Z M 8.117188 6.855469 " clip-rule="nonzero"/></clipPath></defs><rect x="-7.5" width="90" fill="#ffffff" y="-7.5" height="89.999996" fill-opacity="1"/><rect x="-7.5" width="90" fill="#ffffff" y="-7.5" height="89.999996" fill-opacity="1"/><g clip-path="url(#0c8cc975b4)"><path fill="#46afcf" d="M 23.921875 46.5625 C 21.03125 41.875 17.199219 36.703125 10.875 36.832031 C 10.875 36.832031 12.539062 34.699219 15.714844 34.851562 C 15.714844 34.851562 17.664062 29.941406 21.992188 30.023438 C 22.652344 30.035156 23.273438 30.128906 23.882812 30.304688 C 26.433594 30.523438 27.136719 28.550781 27.136719 28.550781 C 27.328125 29.976562 26.914062 30.953125 26.449219 31.578125 C 28.167969 32.757812 29.980469 34.605469 32.363281 37.105469 C 48.644531 34.332031 51.335938 18.34375 51.335938 18.34375 C 53.632812 29.429688 49.222656 39.09375 45.714844 44.652344 C 50.320312 45.332031 56.238281 44.921875 63.847656 42.558594 C 63.847656 42.558594 37.363281 68.347656 23.921875 46.5625 Z M 44.761719 17.277344 C 45.671875 21.671875 45.527344 25.84375 44.804688 29.625 C 41.632812 33.132812 37.550781 35.367188 32.628906 36.28125 C 32.046875 35.671875 31.496094 35.101562 30.964844 34.566406 C 42.660156 29.738281 44.761719 17.277344 44.761719 17.277344 Z M 37.363281 6.851562 C 21.230469 6.851562 8.148438 20.03125 8.148438 36.292969 C 8.148438 52.550781 21.230469 65.734375 37.363281 65.734375 C 53.496094 65.734375 66.574219 52.550781 66.574219 36.292969 C 66.574219 20.03125 53.496094 6.851562 37.363281 6.851562 " fill-opacity="1" fill-rule="nonzero"/></g></svg>