<?xml version="1.0" standalone="no"?>
<!DOCTYPE svg PUBLIC "-//W3C//DTD SVG 20010904//EN"
 "http://www.w3.org/TR/2001/REC-SVG-20010904/DTD/svg10.dtd">
<svg version="1.0" xmlns="http://www.w3.org/2000/svg"
 width="96.000000pt" height="96.000000pt" viewBox="0 0 96.000000 96.000000"
 preserveAspectRatio="xMidYMid meet">
<metadata>
Created by potrace 1.14, written by Peter Selinger 2001-2017
</metadata>
<g transform="translate(0.000000,96.000000) scale(0.100000,-0.100000)"
fill="#000000" stroke="none">
<path d="M364 851 c-114 -41 -184 -102 -236 -209 -30 -61 -33 -74 -33 -162 0
-85 3 -102 31 -160 71 -150 207 -232 374 -226 287 9 461 333 314 584 -90 153
-289 229 -450 173z m146 -71 c0 -26 -3 -30 -29 -30 -24 0 -31 -6 -45 -45 -10
-25 -24 -45 -32 -45 -8 0 -14 -7 -14 -15 0 -12 14 -15 70 -15 46 0 81 -6 104
-17 39 -20 42 -29 22 -56 -13 -17 -17 -17 -75 -2 l-62 16 -59 -46 c-58 -45
-60 -48 -60 -92 0 -39 5 -50 32 -75 24 -22 41 -28 75 -28 l43 0 0 -39 c0 -48
25 -111 45 -111 18 0 105 113 105 137 1 10 7 29 15 43 19 33 19 60 0 60 -8 0
-21 13 -30 29 -13 27 -13 31 1 45 13 14 18 14 38 1 20 -14 27 -14 59 0 21 8
37 22 37 31 0 11 8 14 28 12 27 -3 27 -4 26 -74 -2 -87 -37 -166 -101 -225
-68 -62 -123 -83 -223 -83 -74 -1 -92 3 -142 28 -69 35 -131 98 -161 164 -30
66 -30 197 -1 263 52 113 175 197 292 199 40 0 42 -1 42 -30z"/>
</g>
</svg>
